<svg xmlns="http://www.w3.org/2000/svg" xmlns:xlink="http://www.w3.org/1999/xlink" width="25" height="25" viewBox="0 0 25 25">
  <defs>
    <clipPath id="clip-path">
      <rect id="矩形_5" data-name="矩形 5" width="25" height="25" transform="translate(295 10)" fill="#225546"/>
    </clipPath>
    <linearGradient id="linear-gradient" x1="0.5" x2="0.5" y2="1" gradientUnits="objectBoundingBox">
      <stop offset="0" stop-color="#ffffc1"/>
      <stop offset="0.289" stop-color="#fada8e"/>
      <stop offset="0.487" stop-color="#dab672"/>
      <stop offset="0.797" stop-color="#b88849"/>
      <stop offset="1" stop-color="#e0b66c"/>
    </linearGradient>
  </defs>
  <g id="ic-bag" transform="translate(-295 -10)" clip-path="url(#clip-path)">
    <g id="路径_3" data-name="路径 3" transform="translate(295 10)" fill="url(#linear-gradient)">
      <path d="M 22.07031059265137 24.5 L 2.929689884185791 24.5 C 2.66690993309021 24.5 2.453130006790161 24.28622055053711 2.453130006790161 24.02343940734863 L 2.453130006790161 6.835939884185791 C 2.453130006790161 6.573160171508789 2.66690993309021 6.359379768371582 2.929689884185791 6.359379768371582 L 5.905570030212402 6.359379768371582 L 6.350150108337402 6.359379768371582 L 6.402140140533447 5.917850017547607 C 6.765810012817383 2.829169988632202 9.387319564819336 0.5 12.5 0.5 C 15.61268997192383 0.5 18.23419952392578 2.829169988632202 18.59786987304688 5.917850017547607 L 18.64986038208008 6.359379768371582 L 19.09444046020508 6.359379768371582 L 22.07031059265137 6.359379768371582 C 22.33308982849121 6.359379768371582 22.5468807220459 6.573160171508789 22.5468807220459 6.835939884185791 L 22.5468807220459 24.02343940734863 C 22.5468807220459 24.28622055053711 22.33308982849121 24.5 22.07031059265137 24.5 Z M 3.40625 7.3125 L 3.40625 7.8125 L 3.40625 23.0468807220459 L 3.40625 23.5468807220459 L 3.90625 23.5468807220459 L 21.09375 23.5468807220459 L 21.59375 23.5468807220459 L 21.59375 23.0468807220459 L 21.59375 7.8125 L 21.59375 7.3125 L 21.09375 7.3125 L 19.1406307220459 7.3125 L 18.6406307220459 7.3125 L 18.6406307220459 7.8125 L 18.6406307220459 10.74219036102295 C 18.6406307220459 11.00496959686279 18.42683982849121 11.21875 18.16406059265137 11.21875 C 17.90127944946289 11.21875 17.6875 11.00496959686279 17.6875 10.74219036102295 L 17.6875 7.8125 L 17.6875 7.3125 L 17.1875 7.3125 L 7.8125 7.3125 L 7.3125 7.3125 L 7.3125 7.8125 L 7.3125 10.74219036102295 C 7.3125 11.00496959686279 7.098720073699951 11.21875 6.835939884185791 11.21875 C 6.573160171508789 11.21875 6.359379768371582 11.00496959686279 6.359379768371582 10.74219036102295 L 6.359379768371582 7.8125 L 6.359379768371582 7.3125 L 5.859379768371582 7.3125 L 3.90625 7.3125 L 3.40625 7.3125 Z M 12.5 1.453130006790161 C 9.958189964294434 1.453130006790161 7.806990146636963 3.271290063858032 7.38493013381958 5.776309967041016 L 7.286690235137939 6.359379768371582 L 7.87798023223877 6.359379768371582 L 17.12202072143555 6.359379768371582 L 17.71331024169922 6.359379768371582 L 17.61507034301758 5.776309967041016 C 17.1930103302002 3.271290063858032 15.04181003570557 1.453130006790161 12.5 1.453130006790161 Z" stroke="none"/>
      <path d="M 12.5 0 C 15.89731979370117 0 18.70648956298828 2.564550399780273 19.09442901611328 5.859369277954102 L 22.07031059265137 5.859369277954102 C 22.60967063903809 5.859369277954102 23.0468692779541 6.296579360961914 23.0468692779541 6.835939407348633 L 23.0468692779541 24.02343940734863 C 23.0468692779541 24.56278991699219 22.60967063903809 25 22.07031059265137 25 L 2.929689407348633 25 C 2.390329360961914 25 1.953119277954102 24.56278991699219 1.953119277954102 24.02343940734863 L 1.953119277954102 6.835939407348633 C 1.953119277954102 6.296579360961914 2.390329360961914 5.859369277954102 2.929689407348633 5.859369277954102 L 5.905569076538086 5.859369277954102 C 6.293510437011719 2.564550399780273 9.102680206298828 0 12.5 0 Z M 17.12202072143555 5.859369277954102 C 16.74897003173828 3.645259857177734 14.81855010986328 1.953119277954102 12.5 1.953119277954102 C 10.18144989013672 1.953119277954102 8.251029968261719 3.645259857177734 7.877979278564453 5.859369277954102 L 17.12202072143555 5.859369277954102 Z M 6.835939407348633 11.71875 C 6.296579360961914 11.71875 5.859369277954102 11.28153991699219 5.859369277954102 10.74219036102295 L 5.859369277954102 7.8125 L 3.90625 7.8125 L 3.90625 23.0468692779541 L 21.09375 23.0468692779541 L 21.09375 7.8125 L 19.14062118530273 7.8125 L 19.14062118530273 10.74219036102295 C 19.14062118530273 11.28153991699219 18.70342063903809 11.71875 18.16406059265137 11.71875 C 17.62471008300781 11.71875 17.1875 11.28153991699219 17.1875 10.74219036102295 L 17.1875 7.8125 L 7.8125 7.8125 L 7.8125 10.74219036102295 C 7.8125 11.28153991699219 7.375289916992188 11.71875 6.835939407348633 11.71875 Z" stroke="none" fill="#f7d894"/>
    </g>
  </g>
</svg>
