<svg xmlns="http://www.w3.org/2000/svg" xmlns:xlink="http://www.w3.org/1999/xlink" width="25" height="25" viewBox="0 0 25 25">
  <defs>
    <linearGradient id="linear-gradient" x1="0.5" x2="0.5" y2="1" gradientUnits="objectBoundingBox">
      <stop offset="0" stop-color="#ffffc1"/>
      <stop offset="0.289" stop-color="#fada8e"/>
      <stop offset="0.487" stop-color="#dab672"/>
      <stop offset="0.797" stop-color="#b88849"/>
      <stop offset="1" stop-color="#e0b66c"/>
    </linearGradient>
  </defs>
  <g id="ic-menu" transform="translate(-335 -10)">
    <rect id="矩形_4" data-name="矩形 4" width="25" height="25" transform="translate(335 10)" fill="rgba(34,85,70,0)"/>
    <g id="联合_2" data-name="联合 2" transform="translate(360 30) rotate(180)" fill="url(#linear-gradient)">
      <path d="M 24.00029945373535 15.50020027160645 L 5.000400066375732 15.50020027160645 C 4.72475004196167 15.50020027160645 4.500500202178955 15.27595043182373 4.500500202178955 15.00030040740967 C 4.500500202178955 14.72416019439697 4.72475004196167 14.4995002746582 5.000400066375732 14.4995002746582 L 24.00029945373535 14.4995002746582 C 24.27594947814941 14.4995002746582 24.50020027160645 14.72416019439697 24.50020027160645 15.00030040740967 C 24.50020027160645 15.27595043182373 24.27594947814941 15.50020027160645 24.00029945373535 15.50020027160645 Z M 24.00029945373535 8.5 L 0.9999001622200012 8.5 C 0.7242501378059387 8.5 0.5000001192092896 8.275750160217285 0.5000001192092896 8.000100135803223 C 0.5000001192092896 7.72445011138916 0.7242501378059387 7.500200271606445 0.9999001622200012 7.500200271606445 L 24.00029945373535 7.500200271606445 C 24.27594947814941 7.500200271606445 24.50020027160645 7.72445011138916 24.50020027160645 8.000100135803223 C 24.50020027160645 8.275750160217285 24.27594947814941 8.5 24.00029945373535 8.5 Z M 24.00029945373535 1.499800086021423 L 9.999899864196777 1.499800086021423 C 9.724249839782715 1.499800086021423 9.5 1.275550127029419 9.5 0.9999001622200012 C 9.5 0.7242501378059387 9.724249839782715 0.5000001192092896 9.999899864196777 0.5000001192092896 L 24.00029945373535 0.5000001192092896 C 24.27594947814941 0.5000001192092896 24.50020027160645 0.7242501378059387 24.50020027160645 0.9999001622200012 C 24.50020027160645 1.275550127029419 24.27594947814941 1.499800086021423 24.00029945373535 1.499800086021423 Z" stroke="none"/>
      <path d="M 24.00029945373535 15.00020027160645 L 24.00029945373535 14.9995002746582 L 5.000400066375732 15.00020027160645 L 24.00029945373535 15.00020027160645 M 24.00029945373535 16.00020027160645 L 5.000400066375732 16.00020027160645 C 4.447800159454346 16.00020027160645 4.000500202178955 15.55200004577637 4.000500202178955 15.00030040740967 C 4.000500202178955 14.44770050048828 4.447800159454346 13.9995002746582 5.000400066375732 13.9995002746582 L 24.00029945373535 13.9995002746582 C 24.55290031433105 13.9995002746582 25.00020027160645 14.44770050048828 25.00020027160645 15.00030040740967 C 25.00020027160645 15.55200004577637 24.55290031433105 16.00020027160645 24.00029945373535 16.00020027160645 Z M 24.00029945373535 9 L 0.9999001622200012 9 C 0.448200136423111 9 1.358032193365943e-07 8.551799774169922 1.358032193365943e-07 8.000100135803223 C 1.358032193365943e-07 7.447500228881836 0.448200136423111 7.000200271606445 0.9999001622200012 7.000200271606445 L 24.00029945373535 7.000200271606445 C 24.55290031433105 7.000200271606445 25.00020027160645 7.447500228881836 25.00020027160645 8.000100135803223 C 25.00020027160645 8.551799774169922 24.55290031433105 9 24.00029945373535 9 Z M 24.00029945373535 1.999800086021423 L 9.999899864196777 1.999800086021423 C 9.448200225830078 1.999800086021423 9 1.552500128746033 9 0.9999001622200012 C 9 0.447300136089325 9.448200225830078 1.358032193365943e-07 9.999899864196777 1.358032193365943e-07 L 24.00029945373535 1.358032193365943e-07 C 24.55290031433105 1.358032193365943e-07 25.00020027160645 0.447300136089325 25.00020027160645 0.9999001622200012 C 25.00020027160645 1.552500128746033 24.55290031433105 1.999800086021423 24.00029945373535 1.999800086021423 Z" stroke="none" fill="#f7d894"/>
    </g>
  </g>
</svg>
