<svg xmlns="http://www.w3.org/2000/svg" xmlns:xlink="http://www.w3.org/1999/xlink" width="25" height="25" viewBox="0 0 25 25">
  <defs>
    <clipPath id="clip-path">
      <rect id="矩形_25" data-name="矩形 25" width="25" height="25" transform="translate(335 10)" fill="#225546"/>
    </clipPath>
    <linearGradient id="linear-gradient" x1="0.5" x2="0.5" y2="1" gradientUnits="objectBoundingBox">
      <stop offset="0" stop-color="#ffffc1"/>
      <stop offset="0.289" stop-color="#fada8e"/>
      <stop offset="0.487" stop-color="#dab672"/>
      <stop offset="0.797" stop-color="#b88849"/>
      <stop offset="1" stop-color="#e0b66c"/>
    </linearGradient>
  </defs>
  <g id="ic-search" transform="translate(-335 -10)" clip-path="url(#clip-path)">
    <g id="联合_4" data-name="联合 4" transform="translate(134 -11)" fill="url(#linear-gradient)">
      <path d="M 225.0765075683594 45.49990081787109 C 224.9633941650391 45.49990081787109 224.8569183349609 45.45571136474609 224.7766723632813 45.37546157836914 L 218.6964569091797 39.29524230957031 L 218.372314453125 38.97109985351563 L 218.0213165283203 39.26593017578125 C 216.2133636474609 40.78456115722656 213.9187927246094 41.62090301513672 211.560302734375 41.62090301513672 C 206.0128631591797 41.62090301513672 201.4997100830078 37.10773086547852 201.4997100830078 31.56030082702637 C 201.4997100830078 26.01287078857422 206.0128631591797 21.49970245361328 211.560302734375 21.49970245361328 C 217.1077423095703 21.49970245361328 221.6209106445313 26.01287078857422 221.6209106445313 31.56030082702637 C 221.6209106445313 33.91880035400391 220.7845611572266 36.21335983276367 219.2659301757813 38.02130126953125 L 218.9710998535156 38.3723030090332 L 219.2952423095703 38.69644165039063 L 225.3754425048828 44.77665328979492 C 225.4556274414063 44.85684204101563 225.499755859375 44.96338272094727 225.4996795654297 45.07666015625 C 225.4996032714844 45.18949127197266 225.4556427001953 45.29545211791992 225.3758850097656 45.375 C 225.2952728271484 45.45602035522461 225.1894226074219 45.49990081787109 225.0765075683594 45.49990081787109 Z M 211.560302734375 22.34740257263184 C 206.4803009033203 22.34740257263184 202.347412109375 26.48029136657715 202.347412109375 31.56030082702637 C 202.347412109375 36.64031219482422 206.4803009033203 40.77320098876953 211.560302734375 40.77320098876953 C 213.9679565429688 40.77320098876953 216.2470855712891 39.84675979614258 217.9778442382813 38.16453170776367 L 218.0043640136719 38.13876342773438 L 218.0267944335938 38.10935211181641 C 218.0385589599609 38.09395217895508 218.0513763427734 38.07929992675781 218.0648956298828 38.06583023071289 C 218.0789031982422 38.05182266235352 218.0935211181641 38.03903198242188 218.1088409423828 38.02733993530273 L 218.1382141113281 38.00492095947266 L 218.1639862060547 37.97841262817383 C 219.8465728759766 36.24760055541992 220.7732086181641 33.9682731628418 220.7732086181641 31.56030082702637 C 220.7732086181641 26.48029136657715 216.6403198242188 22.34740257263184 211.560302734375 22.34740257263184 Z" stroke="none"/>
      <path d="M 225.0765075683594 45.99990081787109 C 224.8397979736328 45.99990081787109 224.60400390625 45.9099006652832 224.4231109619141 45.72900009155273 L 218.3428955078125 39.6487922668457 C 216.5067443847656 41.19111251831055 214.1402130126953 42.12090301513672 211.560302734375 42.12090301513672 C 205.7373046875 42.12090301513672 200.9997100830078 37.38330078125 200.9997100830078 31.56030082702637 C 200.9997100830078 25.73730087280273 205.7373046875 20.99970245361328 211.560302734375 20.99970245361328 C 217.38330078125 20.99970245361328 222.1209106445313 25.73730087280273 222.1209106445313 31.56030082702637 C 222.1209106445313 34.14020156860352 221.1911163330078 36.50674057006836 219.6487884521484 38.34289169311523 L 225.72900390625 44.42310333251953 C 226.0899047851563 44.78400039672852 226.0899047851563 45.36900329589844 225.72900390625 45.72900009155273 C 225.5490112304688 45.9099006652832 225.3132019042969 45.99990081787109 225.0765075683594 45.99990081787109 Z M 211.560302734375 22.84740257263184 C 206.756103515625 22.84740257263184 202.847412109375 26.75610160827637 202.847412109375 31.56030082702637 C 202.847412109375 36.364501953125 206.756103515625 40.27320098876953 211.560302734375 40.27320098876953 C 213.9175415039063 40.27320098876953 216.0592346191406 39.33208084106445 217.6293487548828 37.80599212646484 C 217.6543731689453 37.77321243286133 217.6818084716797 37.74172210693359 217.7118072509766 37.7118034362793 C 217.7415924072266 37.68202209472656 217.7729034423828 37.65475082397461 217.8054656982422 37.62989044189453 C 219.3318939208984 36.05972290039063 220.2732086181641 33.91783142089844 220.2732086181641 31.56030082702637 C 220.2732086181641 26.75610160827637 216.364501953125 22.84740257263184 211.560302734375 22.84740257263184 Z" stroke="none" fill="#f7d894"/>
    </g>
  </g>
</svg>
