<svg xmlns="http://www.w3.org/2000/svg" xmlns:xlink="http://www.w3.org/1999/xlink" width="70" height="25" viewBox="0 0 70 25">
  <defs>
    <linearGradient id="linear-gradient" x1="0.5" x2="0.5" y2="1" gradientUnits="objectBoundingBox">
      <stop offset="0" stop-color="#ffffc1"/>
      <stop offset="0.289" stop-color="#fada8e"/>
      <stop offset="0.487" stop-color="#dab672"/>
      <stop offset="0.797" stop-color="#b88849"/>
      <stop offset="1" stop-color="#e0b66c"/>
    </linearGradient>
  </defs>
  <g id="logo" transform="translate(-154.667 -45)">
    <rect id="矩形_39" data-name="矩形 39" width="70" height="25" transform="translate(154.667 45)" fill="rgba(255,255,255,0)"/>
    <g id="联合_6" data-name="联合 6" transform="translate(154.667 45)" fill="url(#linear-gradient)">
      <path d="M 56.30796051025391 24.5 C 54.45148849487305 24.5 53.14633941650391 23.51119041442871 52.31795120239258 21.47706985473633 L 52.30640411376953 21.47876739501953 L 52.15410995483398 21.04253959655762 C 51.57838821411133 19.39348983764648 51.29851913452148 17.21920013427734 51.29851913452148 14.39544010162354 C 51.29851913452148 9.046159744262695 52.66318893432617 3.513079881668091 54.9469108581543 3.513079881668091 C 55.58197021484375 3.513079881668091 56.02561950683594 3.81673002243042 56.34310913085938 4.468699932098389 C 56.66722869873047 5.134290218353271 56.83156967163086 6.117179870605469 56.83156967163086 7.390059947967529 C 56.83156967163086 9.944080352783203 56.44340133666992 12.83790016174316 55.73855972290039 15.53845024108887 C 55.06742858886719 18.10985946655273 54.16133880615234 20.27223968505859 53.25262832641602 21.47112083435059 L 53.06396865844727 21.72002029418945 L 53.20487976074219 21.99873924255371 C 53.90248107910156 23.37861061096191 54.99061965942383 24.07826042175293 56.43907165527344 24.07826042175293 C 58.09451675415039 24.07826042175293 59.75888824462891 22.76492118835449 60.41616058349609 21.82884788513184 C 60.50065612792969 21.71586990356445 60.5976448059082 21.68573760986328 60.63647842407227 21.67794227600098 C 60.57076263427734 22.2198429107666 60.02274322509766 22.89838790893555 59.1763916015625 23.4759693145752 C 58.25082015991211 24.10762023925781 57.15169906616211 24.5 56.30796051025391 24.5 Z M 55.04478073120117 4.194079875946045 C 54.08863067626953 4.194079875946045 53.28018951416016 5.431759834289551 52.64191818237305 7.872739791870117 C 52.11518859863281 9.887160301208496 51.80072021484375 12.3971996307373 51.80072021484375 14.58712005615234 C 51.80072021484375 16.9091796875 52.22566986083984 19.46821022033691 52.52742004394531 20.54365921020508 L 52.80160140991211 21.52087020874023 L 53.4093017578125 20.70796012878418 C 54.53195190429688 19.20619964599609 55.25125122070313 16.69195938110352 55.6569709777832 14.84722995758057 C 56.18078994750977 12.46553993225098 56.48120880126953 9.817370414733887 56.48120880126953 7.581739902496338 C 56.48120880126953 5.944039821624756 56.10385894775391 4.194079875946045 55.04478073120117 4.194079875946045 Z M 2.572819948196411 24.15302085876465 C 2.416149854660034 24.15302085876465 2.354329824447632 24.12450218200684 2.339725494384766 24.11623001098633 C 2.335826635360718 24.1053581237793 2.329560041427612 24.07803153991699 2.329560041427612 24.03116035461426 C 2.329560041427612 23.9471492767334 2.356600046157837 23.60757064819336 2.607019901275635 22.27206039428711 L 4.106780052185059 14.51636028289795 L 4.198130130767822 14.04391956329346 L 3.729540109634399 13.93451976776123 C 2.272875785827637 13.59445381164551 0.5396223068237305 12.9783296585083 0.5006660223007202 11.9686975479126 C 1.439844727516174 12.62535381317139 2.529861211776733 13.12300395965576 3.751840114593506 13.45195960998535 L 4.270649909973145 13.59162998199463 L 4.372710227966309 13.06412029266357 L 5.363709926605225 7.941830158233643 C 5.53400993347168 7.062419891357422 5.616799831390381 6.445539951324463 5.616799831390381 6.056039810180664 C 5.616799831390381 5.817174434661865 5.57586145401001 5.588222980499268 5.494576454162598 5.370829105377197 C 6.619683742523193 4.960882186889648 7.159409999847412 4.867889881134033 7.417409896850586 4.867889881134033 C 7.606917381286621 4.867889881134033 7.802859306335449 4.867913722991943 7.803647518157959 5.430799007415771 C 7.799717903137207 5.513929843902588 7.746600151062012 5.924328327178955 7.34788990020752 7.927969932556152 L 6.359769821166992 13.14379024505615 L 6.247409820556641 13.73686027526855 L 6.851029872894287 13.73686027526855 C 9.693940162658691 13.73686027526855 12.05955028533936 12.99240016937256 13.88214015960693 11.52416038513184 C 15.73795986175537 10.02917957305908 16.67893981933594 8.084719657897949 16.67893981933594 5.744790077209473 C 16.67893981933594 4.388309955596924 16.15706062316895 3.278709888458252 15.1277904510498 2.446810007095337 C 14.1314697265625 1.640980005264282 12.81165027618408 1.232339978218079 11.20512962341309 1.232339978218079 C 6.919039249420166 1.232339978218079 3.377917528152466 2.981452226638794 0.6650562286376953 6.434916019439697 C 0.6374219655990601 6.287665367126465 0.6285600066184998 6.178998947143555 0.6285600066184998 6.100220203399658 C 0.6285600066184998 4.821780204772949 1.836300015449524 3.570029973983765 4.2182297706604 2.379739999771118 C 6.71422004699707 1.132439970970154 9.454509735107422 0.5 12.36297988891602 0.5 C 14.51731014251709 0.5 16.13909912109375 0.9039400219917297 17.18330001831055 1.700590014457703 C 18.20022010803223 2.47642993927002 18.69455909729004 3.625010013580322 18.69455909729004 5.211959838867188 C 18.69455909729004 6.391469955444336 18.41604995727539 7.511650085449219 17.86676025390625 8.541379928588867 C 17.31048965454102 9.584199905395508 16.45889091491699 10.56947040557861 15.33559989929199 11.46982002258301 C 13.07566165924072 13.28232383728027 10.39554882049561 14.20177936553955 7.370072364807129 14.20278835296631 L 6.590229988098145 14.1879301071167 L 6.170770168304443 14.17994022369385 L 6.090050220489502 14.59164047241211 L 4.815549850463867 21.09214019775391 C 4.560379981994629 22.39409065246582 4.530869960784912 22.80969047546387 4.530869960784912 23.0090503692627 C 4.530869960784912 23.21071815490723 4.557291030883789 23.4205322265625 4.609689712524414 23.6363353729248 C 3.854878902435303 23.97941589355469 3.171165466308594 24.15302085876465 2.572819948196411 24.15302085876465 Z M 35.86083984375 23.87945938110352 C 34.44453048706055 23.87945938110352 33.48994064331055 23.13298034667969 32.94253921508789 21.59736061096191 L 32.92001342773438 21.59952735900879 L 32.77787017822266 21.06388092041016 C 32.55418014526367 20.22089958190918 32.44076156616211 19.20334053039551 32.44076156616211 18.03945922851563 C 32.44076156616211 16.30463027954102 32.69649124145508 14.5545597076416 32.91102981567383 13.39192008972168 L 33.02381896972656 12.78065967559814 L 32.40259170532227 12.80146980285645 C 31.38375091552734 12.83561038970947 30.22901916503906 12.95823001861572 28.76860046386719 13.18737030029297 L 28.35707092285156 13.25193977355957 L 28.34626960754395 13.66835975646973 C 28.26250076293945 16.89756011962891 27.52924919128418 19.71412086486816 26.28160095214844 21.59919929504395 L 26.17115020751953 21.76608085632324 L 26.20634078979492 21.96307945251465 C 26.30706977844238 22.52700996398926 26.94462966918945 23.59351921081543 28.63661956787109 23.59351921081543 C 29.93184089660645 23.59351921081543 30.70438003540039 22.81336975097656 31.26847076416016 22.24373054504395 C 31.56916999816895 21.9400691986084 31.85318946838379 21.65324974060059 32.05617141723633 21.65324974060059 C 32.08960723876953 21.65324974060059 32.10683441162109 21.65641403198242 32.11166000366211 21.657470703125 L 32.15141296386719 21.67348098754883 L 31.97723007202148 21.69024085998535 C 31.79833030700684 22.86926078796387 29.94290924072266 23.87945938110352 28.5494499206543 23.87945938110352 C 27.10847091674805 23.87945938110352 26.14460945129395 23.10637092590332 25.60276031494141 21.51601982116699 L 25.58937835693359 21.51753234863281 L 25.4770393371582 21.10338020324707 C 25.2463493347168 20.25288009643555 25.12937927246094 19.22203063964844 25.12937927246094 18.03945922851563 C 25.12937927246094 16.95251083374023 25.22899055480957 15.73972988128662 25.42546081542969 14.43482971191406 L 25.52761077880859 13.75634956359863 L 24.85045051574707 13.86693000793457 C 24.39476776123047 13.94134140014648 23.74411201477051 14.03998374938965 23.33098411560059 14.04224967956543 C 23.29971694946289 13.87587928771973 23.29351997375488 13.7672004699707 23.29351997375488 13.70730972290039 C 23.29351997375488 13.66656017303467 23.2966194152832 13.63138961791992 23.30273056030273 13.60278034210205 L 23.44998931884766 12.91333961486816 L 22.75064086914063 13.00234031677246 C 21.47168922424316 13.16510009765625 20.19046020507813 13.39632987976074 19.06006050109863 13.60033988952637 C 17.75657653808594 13.83559417724609 16.62938690185547 14.03901290893555 16.01979827880859 14.04225063323975 C 15.98886680603027 13.87658214569092 15.9827299118042 13.7675952911377 15.9827299118042 13.70730972290039 C 15.9827299118042 13.51653003692627 15.9827299118042 13.47119998931885 16.76630020141602 13.25555038452148 C 16.96853065490723 13.19989013671875 17.19775009155273 13.13681030273438 17.44780921936035 13.05383968353271 C 17.9168701171875 12.89688014984131 18.30673027038574 12.75518989562988 18.65069007873535 12.63016986846924 C 19.26704978942871 12.40614986419678 19.7123908996582 12.24429035186768 19.94721984863281 12.24429035186768 C 20.00750923156738 12.24429035186768 20.08254051208496 12.24429035186768 20.24151039123535 12.6655101776123 L 20.37571907043457 13.0211296081543 L 20.75428009033203 12.98692989349365 L 25.50226020812988 12.55805969238281 L 25.87450981140137 12.52443981170654 L 25.9476203918457 12.15789031982422 C 25.9507999420166 12.14235973358154 26.30252075195313 10.48466968536377 27.37342071533203 10.48466968536377 C 28.12042999267578 10.48466968536377 28.2130298614502 11.86793041229248 28.2137508392334 11.8818998336792 L 28.23833084106445 12.35601997375488 L 28.71315002441406 12.35735988616943 C 28.73821067810059 12.35735988616943 28.78323936462402 12.35560989379883 29.15109062194824 12.34031009674072 C 29.96740913391113 12.30636978149414 31.66603088378906 12.23573017120361 32.87564086914063 12.20936012268066 L 33.22972106933594 12.20164012908936 L 33.33992004394531 11.8650598526001 C 33.50870895385742 11.34953022003174 33.90787887573242 10.48466968536377 34.68481063842773 10.48466968536377 C 35.43124008178711 10.48466968536377 35.52381134033203 11.86793041229248 35.52452850341797 11.8818998336792 L 35.54911041259766 12.35601997375488 L 36.02392959594727 12.35735988616943 C 36.04898834228516 12.35735988616943 36.09402084350586 12.35560989379883 36.46187973022461 12.34031009674072 C 37.38832855224609 12.30179023742676 39.84928131103516 12.19946002960205 40.93500900268555 12.19946002960205 C 43.047607421875 12.19946002960205 43.61336135864258 12.49046611785889 43.73602294921875 12.57847785949707 C 43.7256965637207 12.59346961975098 43.70403289794922 12.60878944396973 43.65856170654297 12.62963008880615 C 43.54592132568359 12.68126010894775 43.37071990966797 12.71086978912354 43.17789840698242 12.71086978912354 C 42.76163864135742 12.71086978912354 42.20656967163086 12.67372989654541 41.56385040283203 12.6307201385498 C 40.59624862670898 12.5659704208374 39.39205169677734 12.48538970947266 38.01657867431641 12.48538970947266 C 37.47634124755859 12.48538970947266 37.10210037231445 12.49995040893555 36.63822937011719 12.5250997543335 L 36.50511932373047 12.53232002258301 L 36.39328002929688 12.60484027862549 C 36.35678100585938 12.62849998474121 36.26974105834961 12.6717700958252 36.0967903137207 12.69567966461182 L 35.66772842407227 12.75500011444092 L 35.66527938842773 13.18813991546631 C 35.64585113525391 16.62178993225098 34.9096794128418 19.60889053344727 33.59236907958984 21.59919929504395 L 33.48191833496094 21.76608085632324 L 33.51710891723633 21.96307945251465 C 33.61785125732422 22.52701950073242 34.25542068481445 23.59351921081543 35.94739151000977 23.59351921081543 C 37.24306869506836 23.59351921081543 38.01554870605469 22.81328964233398 38.5795783996582 22.24358940124512 C 38.87233352661133 21.9478931427002 39.14929580688477 21.66817283630371 39.35099029541016 21.6538257598877 L 39.38747406005859 21.75790786743164 L 39.05710983276367 22.2813892364502 C 38.50101089477539 23.16257095336914 37.06716918945313 23.87945938110352 35.86083984375 23.87945938110352 Z M 28.0439395904541 13.30346012115479 L 27.43087005615234 13.41094970703125 C 27.0678596496582 13.47459983825684 26.7142391204834 13.53841972351074 26.37401962280273 13.59980964660645 L 26.32971954345703 13.60781002044678 L 26.00481986999512 13.6664400100708 L 25.93112945556641 13.98824977874756 C 25.71519088745117 14.93120002746582 25.45779037475586 16.37985992431641 25.45779037475586 17.92638969421387 C 25.45779037475586 18.8906192779541 25.51210975646973 19.37108039855957 25.72197914123535 20.26317977905273 L 26.04841995239258 21.65080070495605 L 26.6602897644043 20.36330032348633 C 27.33782958984375 18.93762016296387 27.93523979187012 15.78847980499268 28.0167407989502 13.92529010772705 L 28.0439395904541 13.30346012115479 Z M 35.31034851074219 12.67043972015381 L 34.81914901733398 12.6771297454834 L 33.9592399597168 12.68883037567139 L 33.59619140625 12.69377040863037 L 33.48852920532227 13.04051971435547 C 33.45915985107422 13.1351203918457 32.76921081542969 15.38652038574219 32.76921081542969 17.92638969421387 C 32.76921081542969 18.89277076721191 32.82339096069336 19.37322998046875 33.03274917602539 20.26317977905273 L 33.35916900634766 21.65078926086426 L 33.97105026245117 20.36330032348633 C 34.69400024414063 18.84211921691895 35.33724975585938 15.27962970733643 35.33724975585938 13.53837013244629 L 35.33724975585938 13.53055000305176 L 35.33700942993164 13.52274036407471 L 35.32571029663086 13.16145038604736 L 35.31034851074219 12.67043972015381 Z M 27.25362014770508 11.07534980773926 C 27.07029914855957 11.07534980773926 26.80312919616699 11.14863014221191 26.57136917114258 11.49771976470947 L 25.90827941894531 12.49652004241943 L 27.08455085754395 12.2648401260376 C 27.15379905700684 12.25121021270752 27.21216011047363 12.24429035186768 27.25799942016602 12.24429035186768 C 27.27197074890137 12.24429035186768 27.2846794128418 12.24503040313721 27.29578971862793 12.24647998809814 L 28.05228996276855 12.34549999237061 L 27.84115028381348 11.61233997344971 C 27.70660018920898 11.14511013031006 27.41529083251953 11.07534980773926 27.25362014770508 11.07534980773926 Z M 34.56502151489258 11.07534980773926 C 34.40594863891602 11.07534980773926 34.17110824584961 11.13127994537354 33.95566940307617 11.39772033691406 L 33.32712936401367 12.17504024505615 L 34.32609939575195 12.21175956726074 C 34.42929840087891 12.21555995941162 34.53276062011719 12.2203197479248 34.63602066040039 12.2262601852417 L 35.35694885253906 12.26768016815186 L 35.14204025268555 11.57828044891357 C 35.00563049316406 11.14068984985352 34.72196960449219 11.07534980773926 34.56502151489258 11.07534980773926 Z M 65.45963287353516 23.73259925842285 C 64.38594818115234 23.73259925842285 63.49245071411133 23.49297904968262 62.80392837524414 23.02038955688477 C 62.23123168945313 22.62730026245117 61.82183837890625 22.08012962341309 61.62002182006836 21.43803024291992 L 60.89640808105469 21.54422950744629 L 61.56729125976563 21.2485408782959 C 61.51192092895508 21.02054023742676 61.48384094238281 20.78713035583496 61.48384094238281 20.55479049682617 C 61.48384094238281 19.46851921081543 62.10848999023438 17.9637508392334 63.28131103515625 17.9637508392334 C 63.8030891418457 17.9637508392334 64.36064147949219 18.25625038146973 64.36064147949219 19.07716941833496 C 64.36064147949219 19.91924095153809 63.10707092285156 21.09185028076172 62.66793060302734 21.43623924255371 L 62.31143951416016 21.71581077575684 L 62.55461120605469 22.09804916381836 C 62.58641052246094 22.14805030822754 63.35612869262695 23.32255935668945 65.31787109375 23.32255935668945 C 67.08660125732422 23.32255935668945 68.46958160400391 22.58441925048828 69.174072265625 21.89362907409668 C 69.30744934082031 21.76047134399414 69.41713714599609 21.6976432800293 69.49143981933594 21.66800498962402 C 69.32585906982422 22.9329833984375 66.80104827880859 23.73259925842285 65.45963287353516 23.73259925842285 Z M 63.10758972167969 18.57716941833496 C 62.25254058837891 18.57716941833496 61.77965927124023 19.57975959777832 61.77965927124023 20.27277946472168 C 61.77965927124023 20.40937042236328 61.7999382019043 20.5490608215332 61.84167098999023 20.69985008239746 L 62.01694107055664 21.33317947387695 L 62.58060073852539 20.99535942077637 C 62.6945915222168 20.92704010009766 63.02202987670898 20.63426971435547 63.23862838745117 20.41814994812012 C 63.70161056518555 19.95619964599609 63.89046096801758 19.64938926696777 63.89046096801758 19.35918045043945 C 63.89046096801758 18.94260025024414 63.52463150024414 18.57716941833496 63.10758972167969 18.57716941833496 Z M 48.39820098876953 23.43955039978027 C 47.37363052368164 23.43955039978027 46.61627960205078 23.03764915466309 46.14717864990234 22.24501037597656 C 45.7747802734375 21.6157398223877 45.71786880493164 20.96253967285156 45.71733856201172 20.95602035522461 L 44.71884155273438 20.99469947814941 C 44.71884155273438 20.9003791809082 44.74663162231445 20.83230972290039 44.74979019165039 20.82485961914063 C 44.70536041259766 20.92935943603516 44.34769821166992 21.59351921081543 43.72050857543945 22.22751998901367 C 42.93983840942383 23.01667022705078 42.09571838378906 23.41679954528809 41.21158981323242 23.41679954528809 C 39.98897171020508 23.41679954528809 39.98215866088867 22.75917053222656 39.97991943359375 22.54306030273438 L 39.97544479370117 22.11091423034668 L 40.23038101196289 21.58809089660645 C 40.7423095703125 20.53820037841797 41.99689865112305 19.4082202911377 43.54169845581055 19.4082202911377 C 43.56978607177734 19.4082202911377 43.59385681152344 19.40917015075684 43.61449813842773 19.41104888916016 C 43.58942794799805 19.41175270080566 43.56170272827148 19.41214942932129 43.53102874755859 19.41214942932129 C 42.05783081054688 19.41214942932129 41.08164978027344 21.17266082763672 41.08164978027344 21.88620948791504 C 41.08164978027344 22.26351928710938 41.36930084228516 22.64547920227051 41.91909027099609 22.64547920227051 C 43.07843017578125 22.64547920227051 44.63885879516602 21.06003952026367 45.51847076416016 19.56830024719238 L 45.54716110229492 19.51964950561523 L 45.56427001953125 19.4658203125 C 45.623291015625 19.28679084777832 45.8306884765625 18.88903999328613 46.05743026733398 18.88903999328613 C 46.12481307983398 18.88903999328613 46.16387939453125 18.89835548400879 46.17985916137695 18.90438461303711 C 46.18606948852539 18.91952323913574 46.19917678833008 18.96289253234863 46.1996955871582 19.06012916564941 L 46.18856811523438 19.49319076538086 L 46.18841171264648 19.49961090087891 L 46.18841171264648 19.50602912902832 C 46.18841171264648 21.68383979797363 47.04309844970703 22.9840202331543 48.47470855712891 22.9840202331543 C 49.79513931274414 22.9840202331543 50.83861923217773 22.08470916748047 51.03438949584961 21.9044303894043 L 51.04182052612305 21.89757919311523 L 51.04896926879883 21.89043998718262 C 51.17906188964844 21.76054954528809 51.28043746948242 21.69804000854492 51.35093307495117 21.66820335388184 C 51.19647979736328 22.67739486694336 49.31221389770508 23.43955039978027 48.39820098876953 23.43955039978027 Z M 21.67457008361816 23.43955039978027 C 20.63765907287598 23.43955039978027 19.87467956542969 23.0283203125 19.40681076049805 22.2172794342041 C 19.04923057556152 21.59741020202637 18.99370002746582 20.96406936645508 18.99324035644531 20.95784950256348 L 17.99460029602051 20.99469947814941 C 17.99460029602051 20.90041923522949 18.02235984802246 20.8323802947998 18.0255298614502 20.82493019104004 C 17.98110961914063 20.92943000793457 17.62355995178223 21.59359931945801 16.99650001525879 22.22752952575684 C 16.21590995788574 23.01667022705078 15.3717098236084 23.41679954528809 14.48733043670654 23.41679954528809 C 13.25625038146973 23.41679954528809 13.25625038146973 22.74896049499512 13.25625038146973 22.52949905395508 C 13.25625038146973 21.29692077636719 14.85165977478027 19.4082202911377 16.81744003295898 19.4082202911377 C 16.8455924987793 19.4082202911377 16.86972618103027 19.40917015075684 16.89042282104492 19.41104507446289 C 16.86529922485352 19.41175079345703 16.8375129699707 19.41214942932129 16.80677032470703 19.41214942932129 C 15.33358001708984 19.41214942932129 14.35739994049072 21.17266082763672 14.35739994049072 21.88620948791504 C 14.35739994049072 22.26351928710938 14.64525985717773 22.64547920227051 15.19544982910156 22.64547920227051 C 16.35391998291016 22.64547920227051 17.91452980041504 21.06011962890625 18.79475021362305 19.56843948364258 L 18.82349014282227 19.51972961425781 L 18.84062957763672 19.46582984924316 C 18.89965057373047 19.28679084777832 19.10688972473145 18.88903999328613 19.33319091796875 18.88903999328613 C 19.40051460266113 18.88903999328613 19.43963813781738 18.8983097076416 19.45574378967285 18.90434265136719 C 19.46196174621582 18.91966438293457 19.47496223449707 18.9632625579834 19.47542762756348 19.06073379516602 L 19.46492958068848 19.49391937255859 L 19.46478080749512 19.49996948242188 L 19.46478080749512 19.50602912902832 C 19.46478080749512 21.68383979797363 20.31924057006836 22.9840202331543 21.75045013427734 22.9840202331543 C 23.06911087036133 22.9840202331543 24.1142406463623 22.08499908447266 24.31035995483398 21.9047794342041 L 24.31818962097168 21.89759063720703 L 24.32571029663086 21.89006996154785 C 24.45524597167969 21.76045608520508 24.55632972717285 21.69803047180176 24.62668609619141 21.66821479797363 C 24.47232437133789 22.67692947387695 22.58547973632813 23.43955039978027 21.67457008361816 23.43955039978027 Z" stroke="none"/>
      <path d="M 2.877376794815063 23.63644218444824 C 3.23442816734314 23.59870338439941 3.626086235046387 23.49662208557129 4.048827648162842 23.33122634887695 C 4.036872386932373 23.22248077392578 4.030869960784912 23.11499977111816 4.030869960784912 23.0090503692627 C 4.030869960784912 22.77024078369141 4.064290046691895 22.32560920715332 4.32489013671875 20.99593925476074 L 5.599390029907227 14.49543952941895 L 5.650088310241699 14.23686027526855 L 5.643799781799316 14.23686027526855 L 5.868509769439697 13.05072975158691 L 6.855760097503662 7.839419841766357 L 6.85660982131958 7.83489990234375 L 6.857510089874268 7.830389976501465 C 7.23029899597168 5.956976413726807 7.293245792388916 5.513124465942383 7.303481101989746 5.41156005859375 C 7.303285598754883 5.398674011230469 7.302926540374756 5.386529445648193 7.302438259124756 5.375134944915771 C 7.11711311340332 5.395411491394043 6.756882667541504 5.466816425323486 6.090717792510986 5.691297054290771 C 6.10808801651001 5.810559749603271 6.116799831390381 5.932193279266357 6.116799831390381 6.056039810180664 C 6.116799831390381 6.48367977142334 6.033470153808594 7.11313009262085 5.854599952697754 8.036809921264648 L 4.86359977722168 13.15909957885742 L 4.766097068786621 13.66307067871094 L 4.780399799346924 13.66641044616699 L 4.59768009185791 14.61128997802734 L 3.097978115081787 22.36677932739258 C 2.980725765228271 22.9921989440918 2.914610147476196 23.38813018798828 2.877376794815063 23.63644218444824 M 41.12899780273438 22.91575813293457 C 40.82223510742188 22.71116638183594 40.61952590942383 22.3848762512207 40.58642959594727 21.99871635437012 L 40.47664642333984 22.22386169433594 L 40.47990036010742 22.53787994384766 C 40.48139953613281 22.68282890319824 40.48366546630859 22.89896583557129 41.12899780273438 22.91575813293457 M 14.40465831756592 22.91553115844727 C 14.10364818572998 22.71474266052246 13.90288734436035 22.39695930480957 13.86421871185303 22.02034378051758 C 13.79125499725342 22.21460914611816 13.75625038146973 22.38942909240723 13.75625038146973 22.52949905395508 C 13.75625038146973 22.70747947692871 13.80974006652832 22.75482940673828 13.82732009887695 22.77038955688477 C 13.86370182037354 22.80258178710938 14.00860786437988 22.9030818939209 14.40465831756592 22.91553115844727 M 45.15926742553711 20.95999336242676 L 45.82637786865234 20.93537330627441 C 45.77323532104492 20.68023490905762 45.73915100097656 20.42815780639648 45.71814727783203 20.19115447998047 C 45.56006622314453 20.43055152893066 45.37156677246094 20.69317054748535 45.15926742553711 20.95999336242676 M 18.43525886535645 20.95998954772949 L 19.10260009765625 20.93536376953125 C 19.04952239990234 20.68026161193848 19.01544761657715 20.42801475524902 18.99447250366211 20.19101333618164 C 18.83629608154297 20.43043899536133 18.64767837524414 20.6931037902832 18.43525886535645 20.95998954772949 M 23.83448791503906 13.50689697265625 C 24.14830589294434 13.47224998474121 24.4953498840332 13.41829109191895 24.76985931396484 13.373459815979 L 25.58962249755859 13.23959445953369 L 25.59112930297852 13.23301029205322 L 26.24091911315918 13.11575031280518 L 26.28521919250488 13.10776042938232 C 26.62623023986816 13.04621982574463 26.98065948486328 12.98225975036621 27.34452056884766 12.91847038269043 L 27.74773788452148 12.84777069091797 L 27.74638748168945 12.80972290039063 L 27.25029945373535 12.74478912353516 C 27.23952293395996 12.74570083618164 27.21751594543457 12.74826049804688 27.18117904663086 12.75541973114014 L 26.31147193908691 12.92671871185303 L 26.2999095916748 12.98805046081543 L 25.74607849121094 13.03807830810547 L 24.8286304473877 13.21877956390381 L 24.89772033691406 13.11470890045166 L 23.89898872375488 13.20492172241211 L 23.83448791503906 13.50689697265625 M 18.62897300720215 13.16998195648193 C 18.74216461181641 13.14963436126709 18.8564453125 13.12901020050049 18.97125053405762 13.10828971862793 C 19.24501609802246 13.05888271331787 19.52765083312988 13.00787448883057 19.81694793701172 12.95662403106689 L 19.77371025085449 12.84206008911133 C 19.76561737060547 12.82061672210693 19.75796508789063 12.80099678039551 19.75075531005859 12.78306007385254 C 19.51789093017578 12.84698104858398 19.1535472869873 12.97940158843994 18.82148933410645 13.10009002685547 C 18.7588996887207 13.12283992767334 18.69479560852051 13.14613914489746 18.62897300720215 13.16998195648193 M 15.3345365524292 10.8217248916626 C 17.25828552246094 9.176440238952637 18.19455909729004 7.337967395782471 18.19455909729004 5.211959838867188 C 18.19455909729004 3.791510105133057 17.76457023620605 2.77295994758606 16.88002967834473 2.09810996055603 C 16.10851669311523 1.509506344795227 14.96853446960449 1.1552894115448 13.48232364654541 1.040871977806091 C 14.22284698486328 1.262079834938049 14.87797832489014 1.601699352264404 15.44207954406738 2.057950019836426 C 16.59457969665527 2.989429950714111 17.17893981933594 4.229869842529297 17.17893981933594 5.744790077209473 C 17.17893981933594 7.707574844360352 16.55964279174805 9.409192085266113 15.3345365524292 10.8217248916626 M 56.30796051025391 25 C 54.02262878417969 25 52.6555290222168 23.63166046142578 51.85488128662109 21.6656608581543 C 51.72333145141602 23.04723930358887 49.50740051269531 23.93955039978027 48.39820098876953 23.93955039978027 C 45.43650054931641 23.93955039978027 45.21884155273438 20.99469947814941 45.21884155273438 20.99469947814941 C 45.21884155273438 21.06292915344238 43.75931930541992 23.91679954528809 41.21158981323242 23.91679954528809 C 40.00135040283203 23.91679954528809 39.48802947998047 23.32842063903809 39.47994995117188 22.54824066162109 C 38.79597091674805 23.63204956054688 37.15599822998047 24.37945938110352 35.86083984375 24.37945938110352 C 34.0494499206543 24.37945938110352 33.01715850830078 23.29578018188477 32.4715690612793 21.76524925231934 C 32.24542999267578 23.25558090209961 30.13846015930176 24.37945938110352 28.5494499206543 24.37945938110352 C 26.70355987548828 24.37945938110352 25.66669082641602 23.25403022766113 25.12948036193848 21.67727088928223 C 24.9868106842041 23.05231094360352 22.78009033203125 23.93955039978027 21.67457008361816 23.93955039978027 C 18.71224021911621 23.93955039978027 18.49460029602051 20.99469947814941 18.49460029602051 20.99469947814941 C 18.49460029602051 21.06292915344238 17.03570938110352 23.91679954528809 14.48733043670654 23.91679954528809 C 13.26803970336914 23.91679954528809 12.75625038146973 23.31900024414063 12.75625038146973 22.52949905395508 C 12.75625038146973 21.04018974304199 14.5638599395752 18.9082202911377 16.81744003295898 18.9082202911377 C 17.28595924377441 18.9082202911377 17.51489067077637 19.16749000549316 17.51489067077637 19.53981971740723 C 17.51489067077637 19.86667060852051 17.17683029174805 19.91214942932129 16.80677032470703 19.91214942932129 C 15.62008953094482 19.91214942932129 14.85739994049072 21.45734977722168 14.85739994049072 21.88620948791504 C 14.85739994049072 22.04410934448242 14.97717952728271 22.14547920227051 15.19544982910156 22.14547920227051 C 16.09927940368652 22.14547920227051 17.52556037902832 20.73542976379395 18.3641300201416 19.31434059143066 C 18.3641300201416 19.31434059143066 18.65830039978027 18.38903999328613 19.33319091796875 18.38903999328613 C 19.89954948425293 18.38903999328613 19.97543907165527 18.77242088317871 19.97543907165527 19.06612014770508 L 19.96478080749512 19.50602912902832 C 19.96478080749512 20.57753944396973 20.21503067016602 22.4840202331543 21.75045013427734 22.4840202331543 C 22.7960090637207 22.4840202331543 23.67787933349609 21.80694007873535 23.97204971313477 21.53661918640137 C 24.26557922363281 21.242919921875 24.52712059020996 21.14155006408691 24.73410034179688 21.14155006408691 C 24.83502006530762 21.14155006408691 24.92518997192383 21.17666053771973 24.99448013305664 21.2342700958252 C 24.72987937927246 20.25876045227051 24.62937927246094 19.14779090881348 24.62937927246094 18.03945922851563 C 24.62937927246094 16.7093505859375 24.77592086791992 15.39062976837158 24.9310302734375 14.36038970947266 C 24.2592601776123 14.47008991241455 23.70219993591309 14.54228973388672 23.31661033630371 14.54228973388672 C 23.1641902923584 14.54228973388672 23.03309059143066 14.51955032348633 22.92460060119629 14.49680995941162 C 22.83740997314453 14.18101024627686 22.79351997375488 13.91069030761719 22.79351997375488 13.70730972290039 C 22.79351997375488 13.6302604675293 22.80036926269531 13.56103038787842 22.81376075744629 13.49833965301514 C 20.02395057678223 13.85336971282959 17.19677925109863 14.54228973388672 16.00519943237305 14.54228973388672 C 15.85278034210205 14.54228973388672 15.72233009338379 14.51955032348633 15.61318969726563 14.49680995941162 C 15.52602005004883 14.18101024627686 15.4827299118042 13.91069030761719 15.4827299118042 13.70730972290039 C 15.4827299118042 12.91781997680664 16.20150947570801 12.94056034088135 17.29034996032715 12.57927989959717 C 18.70597076416016 12.10558032989502 19.46803092956543 11.74429035186768 19.94721984863281 11.74429035186768 C 20.31728935241699 11.74429035186768 20.51359939575195 11.97041988372803 20.70929908752441 12.48896026611328 L 25.45727920532227 12.06009006500244 C 25.45727920532227 12.06009006500244 25.87125015258789 9.98466968536377 27.37342071533203 9.98466968536377 C 28.62594985961914 9.98466968536377 28.71315002441406 11.85735988616943 28.71315002441406 11.85735988616943 C 28.78693008422852 11.85735988616943 31.27128028869629 11.74421977996826 32.86473846435547 11.70948028564453 C 33.05847930908203 11.11775016784668 33.57442092895508 9.98466968536377 34.68481063842773 9.98466968536377 C 35.93674087524414 9.98466968536377 36.02392959594727 11.85735988616943 36.02392959594727 11.85735988616943 C 36.11109161376953 11.85735988616943 39.56264877319336 11.69946002960205 40.93500900268555 11.69946002960205 C 42.35062026977539 11.69946002960205 44.24541854858398 11.83460998535156 44.24541854858398 12.53444004058838 C 44.24541854858398 13.09846019744873 43.59185028076172 13.21086978912354 43.17789840698242 13.21086978912354 C 42.11103057861328 13.21086978912354 40.30340957641602 12.98538970947266 38.01657867431641 12.98538970947266 C 37.50466156005859 12.98538970947266 37.14278030395508 12.99847984313965 36.66529846191406 13.02437019348145 C 36.52272033691406 13.11682033538818 36.34109878540039 13.16666030883789 36.1652717590332 13.1909704208374 C 36.14799880981445 16.24382019042969 35.55410003662109 19.54117012023926 34.00931930541992 21.87516021728516 C 34.00931930541992 21.87516021728516 34.22695922851563 23.09351921081543 35.94739151000977 23.09351921081543 C 37.82088088989258 23.09351921081543 38.38663864135742 21.15324974060059 39.36697006225586 21.15324974060059 C 39.64194869995117 21.15324974060059 39.74362945556641 21.26246070861816 39.78096008300781 21.36894989013672 C 40.38536834716797 20.12940979003906 41.83562850952148 18.9082202911377 43.54169845581055 18.9082202911377 C 44.01021957397461 18.9082202911377 44.23852920532227 19.16749000549316 44.23852920532227 19.53981971740723 C 44.23852920532227 19.86667060852051 43.90108108520508 19.91214942932129 43.53102874755859 19.91214942932129 C 42.34371185302734 19.91214942932129 41.58164978027344 21.45734977722168 41.58164978027344 21.88620948791504 C 41.58164978027344 22.04410934448242 41.70145034790039 22.14547920227051 41.91909027099609 22.14547920227051 C 42.82291030883789 22.14547920227051 44.24982070922852 20.73542976379395 45.0877685546875 19.31434059143066 C 45.0877685546875 19.31434059143066 45.38193130493164 18.38903999328613 46.05743026733398 18.38903999328613 C 46.6231803894043 18.38903999328613 46.69971084594727 18.77242088317871 46.69971084594727 19.06612014770508 L 46.68841171264648 19.50602912902832 C 46.68841171264648 20.57753944396973 46.93930053710938 22.4840202331543 48.47470855712891 22.4840202331543 C 49.51966094970703 22.4840202331543 50.40214157104492 21.80694007873535 50.6956901550293 21.53661918640137 C 50.98984146118164 21.242919921875 51.25139999389648 21.14155006408691 51.45837020874023 21.14155006408691 C 51.54219818115234 21.14155006408691 51.61874008178711 21.16592979431152 51.68204879760742 21.20734977722168 C 50.98501968383789 19.21083068847656 50.79851913452148 16.70405006408691 50.79851913452148 14.39544010162354 C 50.79851913452148 9.025580406188965 52.13764190673828 3.013079881668091 54.9469108581543 3.013079881668091 C 56.68930816650391 3.013079881668091 57.33156967163086 4.851980209350586 57.33156967163086 7.390059947967529 C 57.33156967163086 12.85023975372314 55.60049057006836 19.20128059387207 53.65110015869141 21.77314949035645 C 54.36986923217773 23.19488906860352 55.4367790222168 23.57826042175293 56.43907165527344 23.57826042175293 C 57.87601089477539 23.57826042175293 59.41141891479492 22.39369010925293 60.01039886474609 21.53661918640137 C 60.21738815307617 21.25461959838867 60.50027084350586 21.17534065246582 60.65267181396484 21.17534065246582 C 60.86360931396484 21.17534065246582 61.00654983520508 21.25522041320801 61.0814094543457 21.36654090881348 C 61.01578903198242 21.09634017944336 60.98384094238281 20.82320976257324 60.98384094238281 20.55479049682617 C 60.98384094238281 19.16749000549316 61.80046844482422 17.4637508392334 63.28131103515625 17.4637508392334 C 64.08728790283203 17.4637508392334 64.86064147949219 17.99397087097168 64.86064147949219 19.07716941833496 C 64.86064147949219 20.35206031799316 62.97647857666016 21.82967948913574 62.97647857666016 21.82967948913574 C 62.97647857666016 21.82967948913574 63.60810089111328 22.82255935668945 65.31787109375 22.82255935668945 C 66.97308349609375 22.82255935668945 68.21433258056641 22.13443946838379 68.82401275634766 21.53661918640137 C 69.11815643310547 21.242919921875 69.40103149414063 21.14155006408691 69.59735870361328 21.14155006408691 C 69.83695220947266 21.14155006408691 70 21.35597991943359 70 21.53661918640137 C 70 23.34173965454102 66.91851806640625 24.23259925842285 65.45963287353516 24.23259925842285 C 62.94087982177734 24.23259925842285 61.58084869384766 22.98089027404785 61.14302825927734 21.58795928955078 C 61.12224960327148 23.17458915710449 58.28269958496094 25 56.30796051025391 25 Z M 32.41933059692383 13.30119037628174 C 31.2777099609375 13.33944034576416 30.04155921936035 13.49376010894775 28.84609985351563 13.68132972717285 C 28.77057075500488 16.59280014038086 28.16090965270996 19.66567039489746 26.69854927062988 21.87516021728516 C 26.69854927062988 21.87516021728516 26.91617012023926 23.09351921081543 28.63661956787109 23.09351921081543 C 30.50948905944824 23.09351921081543 31.07584953308105 21.15324974060059 32.05617141723633 21.15324974060059 C 32.15729904174805 21.15324974060059 32.23490905761719 21.1680793762207 32.29460144042969 21.19211959838867 C 32.03845977783203 20.22686958312988 31.94075965881348 19.13179016113281 31.94075965881348 18.03945922851563 C 31.94075965881348 16.18951034545898 32.22365188598633 14.36165046691895 32.41933059692383 13.30119037628174 Z M 63.10758972167969 19.07716941833496 C 62.60644149780273 19.07716941833496 62.27965927124023 19.8107795715332 62.27965927124023 20.27277946472168 C 62.27965927124023 20.38585090637207 62.30162048339844 20.48720932006836 62.32355880737305 20.56649017333984 C 62.39945983886719 20.52099990844727 63.39046096801758 19.67498016357422 63.39046096801758 19.35918045043945 C 63.39046096801758 19.23506927490234 63.27066040039063 19.07716941833496 63.10758972167969 19.07716941833496 Z M 55.04478073120117 4.694079875946045 C 53.58586120605469 4.694079875946045 52.30072021484375 10.21014022827148 52.30072021484375 14.58712005615234 C 52.30072021484375 16.94520950317383 52.73662948608398 19.43844985961914 53.00883102416992 20.40859031677246 C 54.80514907836914 18.00567054748535 55.98120880126953 11.97041988372803 55.98120880126953 7.581739902496338 C 55.98120880126953 5.866950035095215 55.5678596496582 4.694079875946045 55.04478073120117 4.694079875946045 Z M 34.82595062255859 13.17708015441895 L 33.96604156494141 13.18877983093262 C 33.96604156494141 13.18877983093262 33.26921081542969 15.43315029144287 33.26921081542969 17.92638969421387 C 33.26921081542969 18.82895088195801 33.3124885559082 19.26885986328125 33.51945877075195 20.14867973327637 C 34.22695922851563 18.66000938415527 34.83724975585938 15.17389011383057 34.83724975585938 13.53837013244629 L 34.82595062255859 13.17708015441895 Z M 27.51721954345703 13.90344047546387 C 27.13925933837891 13.96971035003662 26.77150917053223 14.03616046905518 26.41851043701172 14.09986019134521 C 26.21627044677734 14.98301029205322 25.95779037475586 16.40859031677246 25.95779037475586 17.92638969421387 C 25.95779037475586 18.82895088195801 26.00171089172363 19.26885986328125 26.20869064331055 20.14867973327637 C 26.86720085144043 18.76304054260254 27.44095039367676 15.64704990386963 27.51721954345703 13.90344047546387 Z M 27.25362014770508 11.57534980773926 C 27.14570045471191 11.57534980773926 27.05241966247559 11.6771297454834 26.98793029785156 11.77427005767822 C 27.08728981018066 11.75469970703125 27.17671966552734 11.74429035186768 27.25799942016602 11.74429035186768 C 27.29381942749023 11.74429035186768 27.32798004150391 11.74643039703369 27.36067962646484 11.75070953369141 C 27.3360595703125 11.66522026062012 27.29932975769043 11.57534980773926 27.25362014770508 11.57534980773926 Z M 34.56502151489258 11.57534980773926 C 34.48004913330078 11.57534980773926 34.40428924560547 11.6381196975708 34.3444709777832 11.7121000289917 C 34.45109939575195 11.71601963043213 34.55799865722656 11.72095012664795 34.66469955444336 11.72708034515381 C 34.64049911499023 11.64945030212402 34.60654067993164 11.57534980773926 34.56502151489258 11.57534980773926 Z M 2.572819948196411 24.65302085876465 C 2.077310085296631 24.65302085876465 1.829560041427612 24.44573974609375 1.829560041427612 24.03116035461426 C 1.829560041427612 23.81414031982422 1.924900054931641 23.19684028625488 2.11559009552002 22.17991065979004 L 3.615869998931885 14.42142963409424 C 1.205510020256042 13.85871028900146 0 13.02958011627197 0 11.9340295791626 C 0 11.70726013183594 0.04766999930143356 11.41615009307861 0.1430100053548813 11.06072044372559 C 1.170379996299744 11.93857955932617 2.416660070419312 12.57472991943359 3.881809949874878 12.96914958953857 L 4.872809886932373 7.846859931945801 C 5.035260200500488 7.007979869842529 5.116799831390381 6.41146993637085 5.116799831390381 6.056039810180664 C 5.116799831390381 5.710350036621094 5.002639770507813 5.39454984664917 4.77370023727417 5.108650207519531 C 6.040679931640625 4.614799976348877 6.922520160675049 4.367889881134033 7.417409896850586 4.367889881134033 C 8.008230209350586 4.367889881134033 8.30364990234375 4.723320007324219 8.30364990234375 5.434189796447754 C 8.30364990234375 5.601840019226074 8.148730278015137 6.465410232543945 7.838280200958252 8.02554988861084 L 6.851029872894287 13.23686027526855 C 9.58944034576416 13.23686027526855 11.82859992980957 12.53639030456543 13.5684700012207 11.13479042053223 C 15.30836009979248 9.733200073242188 16.17893981933594 7.936530113220215 16.17893981933594 5.744790077209473 C 16.17893981933594 4.540729999542236 15.72356986999512 3.571239948272705 14.81348991394043 2.83568000793457 C 13.90404987335205 2.100120067596436 12.70104026794434 1.732339978218079 11.20512962341309 1.732339978218079 C 6.746270179748535 1.732339978218079 3.168050050735474 3.667409896850586 0.4716599881649017 7.536910057067871 C 0.243369996547699 6.92480993270874 0.1285600066184998 6.445909976959229 0.1285600066184998 6.100220203399658 C 0.1285600066184998 4.610260009765625 1.417500019073486 3.220360040664673 3.994719982147217 1.932479977607727 C 6.571919918060303 0.6445900201797485 9.361129760742188 -1.77635683940025e-15 12.36297988891602 -1.77635683940025e-15 C 16.91715049743652 -1.77635683940025e-15 19.19455909729004 1.737540006637573 19.19455909729004 5.211959838867188 C 19.19455909729004 7.748740196228027 18.01226997375488 9.965169906616211 15.6483097076416 11.85995960235596 C 13.2849702835083 13.75539016723633 10.52398014068604 14.70279026031494 7.365349769592285 14.70279026031494 L 6.580709934234619 14.68784046173096 L 5.306210041046143 21.18833923339844 C 5.122439861297607 22.12598037719727 5.030869960784912 22.73288917541504 5.030869960784912 23.0090503692627 C 5.030869960784912 23.28586006164551 5.092959880828857 23.58216094970703 5.216509819030762 23.8979606628418 C 4.235559940338135 24.4008903503418 3.354330062866211 24.65302085876465 2.572819948196411 24.65302085876465 Z" stroke="none" fill="#f7d894"/>
    </g>
  </g>
</svg>
