<svg xmlns="http://www.w3.org/2000/svg" xmlns:xlink="http://www.w3.org/1999/xlink" width="25" height="25" viewBox="0 0 25 25">
  <defs>
    <linearGradient id="linear-gradient" x1="0.5" x2="0.5" y2="1" gradientUnits="objectBoundingBox">
      <stop offset="0" stop-color="#ffffc1"/>
      <stop offset="0.289" stop-color="#fada8e"/>
      <stop offset="0.487" stop-color="#dab672"/>
      <stop offset="0.797" stop-color="#b88849"/>
      <stop offset="1" stop-color="#e0b66c"/>
    </linearGradient>
  </defs>
  <g id="ic-brand" transform="translate(-335 -10)">
    <rect id="矩形_4" data-name="矩形 4" width="25" height="25" transform="translate(335 10)" fill="rgba(34,85,70,0)"/>
    <g id="路径_13" data-name="路径 13" transform="translate(333.44 41.11)" fill="url(#linear-gradient)">
      <path d="M 7.078088283538818 -6.6103515625 C 6.872262477874756 -6.6103515625 6.809957504272461 -6.653356552124023 6.80470609664917 -6.657323360443115 C 6.805307388305664 -6.657989025115967 6.795218467712402 -6.681861877441406 6.795218467712402 -6.740981578826904 C 6.795218467712402 -6.825801372528076 6.823658466339111 -7.169161796569824 7.087108135223389 -8.522311210632324 L 8.66730785369873 -16.38723182678223 L 8.763587951660156 -16.86641120910645 L 8.286727905273438 -16.97356224060059 C 6.727388858795166 -17.32393836975098 4.868622303009033 -17.96126365661621 4.868168830871582 -19.00784492492676 C 5.865607261657715 -18.32713317871094 7.026905059814453 -17.81257057189941 8.331317901611328 -17.4743709564209 L 8.842878341674805 -17.34174156188965 L 8.94700813293457 -17.8598518371582 L 9.990988731384277 -23.05434226989746 C 10.17057800292969 -23.94567108154297 10.25789833068848 -24.57218170166016 10.25789833068848 -24.96944236755371 C 10.25789833068848 -25.21181869506836 10.2149486541748 -25.44411277770996 10.12966537475586 -25.66466903686523 C 11.32916259765625 -26.08563041687012 11.90570259094238 -26.18092155456543 12.1817684173584 -26.18092155456543 C 12.39436721801758 -26.18092155456543 12.61419296264648 -26.18087005615234 12.61518478393555 -25.60371780395508 C 12.61089515686035 -25.51913833618164 12.55461883544922 -25.10259628295898 12.13530826568604 -23.07339096069336 L 11.09415817260742 -17.78348159790039 L 10.9767484664917 -17.18693161010742 L 11.58474826812744 -17.18693161010742 C 14.5694580078125 -17.18693161010742 17.05337905883789 -17.93957138061523 18.9675178527832 -19.42394065856934 C 20.92037773132324 -20.93833160400391 21.91055870056152 -22.91011238098145 21.91055870056152 -25.28452110290527 C 21.91055870056152 -26.66228103637695 21.36189842224121 -27.7877311706543 20.27982902526855 -28.62960243225098 C 19.23593902587891 -29.44178199768066 17.8536491394043 -29.85359191894531 16.17137908935547 -29.85359191894531 C 11.64635467529297 -29.85359191894531 7.910215854644775 -28.06517219543457 5.052329540252686 -24.53495788574219 C 5.015131950378418 -24.70987129211426 5.003658294677734 -24.83561515808105 5.003658294677734 -24.92416191101074 C 5.003658294677734 -26.22006225585938 6.278528213500977 -27.49055099487305 8.792858123779297 -28.70033073425293 C 11.4269380569458 -29.96773147583008 14.31971836090088 -30.6103515625 17.39084815979004 -30.6103515625 C 19.669677734375 -30.6103515625 21.38598823547363 -30.19843101501465 22.49212837219238 -29.38604164123535 C 23.56543922424316 -28.5977611541748 24.08718872070313 -27.43295097351074 24.08718872070313 -25.8250617980957 C 24.08718872070313 -24.63055229187012 23.79409790039063 -23.4958610534668 23.2160587310791 -22.45250129699707 C 22.62967872619629 -21.39410209655762 21.73154830932617 -20.39371109008789 20.54661750793457 -19.4791316986084 C 18.1589241027832 -17.63623237609863 15.3275842666626 -16.70135498046875 12.13133239746094 -16.70044326782227 L 11.30918788909912 -16.71538162231445 L 10.89321804046631 -16.72294235229492 L 10.81016826629639 -16.31526184082031 L 9.467438697814941 -9.723661422729492 C 9.198648452758789 -8.400712013244629 9.167568206787109 -7.979091644287109 9.167568206787109 -7.777021408081055 C 9.167568206787109 -7.572486400604248 9.195243835449219 -7.359978199005127 9.250149726867676 -7.141587734222412 C 8.446565628051758 -6.788870811462402 7.717388153076172 -6.6103515625 7.078088283538818 -6.6103515625 Z" stroke="none"/>
      <path d="M 7.342769145965576 -7.12158727645874 C 7.75054407119751 -7.1553955078125 8.199870109558105 -7.26543664932251 8.686320304870605 -7.450446128845215 C 8.673834800720215 -7.560617923736572 8.667568206787109 -7.669547557830811 8.667568206787109 -7.777021408081055 C 8.667568206787109 -8.019591331481934 8.702788352966309 -8.471351623535156 8.977498054504395 -9.823461532592773 L 10.32022857666016 -16.41506195068359 L 10.37560939788818 -16.68693161010742 L 10.36874866485596 -16.68693161010742 L 10.6035680770874 -17.88004112243652 L 11.64377784729004 -23.16532135009766 L 11.64468860626221 -23.16995239257813 L 11.64564800262451 -23.17458152770996 C 12.03673648834229 -25.06718635559082 12.10386753082275 -25.51950454711914 12.11498832702637 -25.62396049499512 C 12.11465167999268 -25.64392852783203 12.11390686035156 -25.66201591491699 12.11288738250732 -25.67832946777344 C 11.93075180053711 -25.66586303710938 11.53291606903076 -25.60141563415527 10.72960376739502 -25.3399600982666 C 10.74839115142822 -25.21809959411621 10.75789833068848 -25.09438133239746 10.75789833068848 -24.96944236755371 C 10.75789833068848 -24.53264236450195 10.66993808746338 -23.89265251159668 10.48118877410889 -22.9558219909668 L 9.43720817565918 -17.76133155822754 L 9.334555625915527 -17.25057792663574 L 9.350068092346191 -17.24709129333496 L 9.15751838684082 -16.28874206542969 L 7.577222347259521 -8.42333984375 C 7.451158046722412 -7.775673389434814 7.381367683410645 -7.371372222900391 7.342769145965576 -7.12158727645874 M 20.18496704101563 -19.83184814453125 C 20.20368766784668 -19.84613990783691 20.22244262695313 -19.86053466796875 20.24110794067383 -19.87494087219238 C 22.49267768859863 -21.61279106140137 23.58718872070313 -23.55909156799316 23.58718872070313 -25.8250617980957 C 23.58718872070313 -27.54486846923828 23.02597808837891 -29.79436302185059 18.41481971740723 -30.08006477355957 C 19.23978996276855 -29.85984992980957 19.96607208251953 -29.50722312927246 20.58685874938965 -29.02423095703125 C 21.79697799682617 -28.08273124694824 22.41055870056152 -26.82451248168945 22.41055870056152 -25.28452110290527 C 22.41055870056152 -23.14906311035156 21.66290283203125 -21.31992149353027 20.18496704101563 -19.83184814453125 M 7.078088283538818 -6.1103515625 C 6.556178092956543 -6.1103515625 6.295218467712402 -6.320561408996582 6.295218467712402 -6.740981578826904 C 6.295218467712402 -6.961201667785645 6.395588397979736 -7.586831569671631 6.596318244934082 -8.617861747741699 L 8.177108764648438 -16.48572158813477 C 5.637808322906494 -17.05630111694336 4.368168354034424 -17.89714241027832 4.368168354034424 -19.00825119018555 C 4.368168354034424 -19.23848152160645 4.41834831237793 -19.53377151489258 4.518718242645264 -19.89413070678711 C 5.600958347320557 -19.00371170043945 6.913658142089844 -18.35846138000488 8.456808090209961 -17.95837211608887 L 9.500788688659668 -23.15286064147949 C 9.672188758850098 -24.0035514831543 9.757898330688477 -24.60908126831055 9.757898330688477 -24.96944236755371 C 9.757898330688477 -25.31964111328125 9.637457847595215 -25.6398811340332 9.396577835083008 -25.93017196655273 C 10.73145866394043 -26.43067169189453 11.65985870361328 -26.68092155456543 12.1817684173584 -26.68092155456543 C 12.80404853820801 -26.68092155456543 13.11518859863281 -26.3205623626709 13.11518859863281 -25.5998420715332 C 13.11518859863281 -25.42967224121094 12.95177841186523 -24.55379104614258 12.62495803833008 -22.97221183776855 L 11.58474826812744 -17.68693161010742 C 14.46936798095703 -17.68693161010742 16.82815742492676 -18.39764213562012 18.66111755371094 -19.81906127929688 C 20.49408912658691 -21.24048233032227 21.41055870056152 -23.06230163574219 21.41055870056152 -25.28452110290527 C 21.41055870056152 -26.50574111938477 20.93130874633789 -27.48923110961914 19.97279739379883 -28.23497200012207 C 19.0142879486084 -28.98072242736816 17.74714851379395 -29.35359191894531 16.17137908935547 -29.35359191894531 C 11.47417831420898 -29.35359191894531 7.705378532409668 -27.39163208007813 4.864978313446045 -23.46771240234375 C 4.624098300933838 -24.08833122253418 4.503658294677734 -24.57381248474121 4.503658294677734 -24.92416191101074 C 4.503658294677734 -26.43567085266113 5.861128330230713 -27.84458160400391 8.576067924499512 -29.15089225769043 C 11.29100799560547 -30.45719146728516 14.22926807403564 -31.1103515625 17.39084815979004 -31.1103515625 C 22.18840789794922 -31.1103515625 24.58718872070313 -29.34859085083008 24.58718872070313 -25.8250617980957 C 24.58718872070313 -23.25249099731445 23.3421688079834 -21.00524139404297 20.85211753845215 -19.08332061767578 C 18.36205863952637 -17.16140174865723 15.45359802246094 -16.20044136047363 12.12672805786133 -16.20044136047363 L 11.30010795593262 -16.21546173095703 L 9.957378387451172 -9.623861312866211 C 9.764168739318848 -8.672911643981934 9.667568206787109 -8.05730152130127 9.667568206787109 -7.777021408081055 C 9.667568206787109 -7.496741771697998 9.732808113098145 -7.196441650390625 9.863287925720215 -6.876121520996094 C 8.829498291015625 -6.365611553192139 7.901098251342773 -6.1103515625 7.078088283538818 -6.1103515625 Z" stroke="none" fill="#f7d894"/>
    </g>
  </g>
</svg>
