<svg xmlns="http://www.w3.org/2000/svg" xmlns:xlink="http://www.w3.org/1999/xlink" width="25" height="25" viewBox="0 0 25 25">
  <defs>
    <clipPath id="clip-path">
      <rect id="矩形_4" data-name="矩形 4" width="25" height="25" transform="translate(15.001 1262)" fill="rgba(34,85,70,0)"/>
    </clipPath>
    <linearGradient id="linear-gradient" x1="0.5" x2="0.5" y2="1" gradientUnits="objectBoundingBox">
      <stop offset="0" stop-color="#ffffc1"/>
      <stop offset="0.289" stop-color="#fada8e"/>
      <stop offset="0.487" stop-color="#dab672"/>
      <stop offset="0.797" stop-color="#b88849"/>
      <stop offset="1" stop-color="#e0b66c"/>
    </linearGradient>
  </defs>
  <g id="ic-contact" transform="translate(-15.001 -1262)" clip-path="url(#clip-path)">
    <path id="联合_7" data-name="联合 7" d="M-38.868,525.082a9.517,9.517,0,0,1-4.438-1.313l-4.658,1.288,1.289-4.658A9.51,9.51,0,0,1-48,515.546,9.557,9.557,0,0,1-38.453,506a9.558,9.558,0,0,1,9.536,9.132A8.1,8.1,0,0,1-23,522.919a8.061,8.061,0,0,1-1.123,4.112l1.088,3.934-3.934-1.088A8.052,8.052,0,0,1-31.081,531,8.1,8.1,0,0,1-38.868,525.082Zm1.515-.054a6.633,6.633,0,0,0,6.273,4.507,6.586,6.586,0,0,0,3.6-1.064l.276-.18,2.069.573-.572-2.07.18-.276a6.591,6.591,0,0,0,1.064-3.6,6.633,6.633,0,0,0-4.507-6.273A9.563,9.563,0,0,1-37.354,525.028ZM-42.8,522.36a8.053,8.053,0,0,0,4.346,1.267,8.09,8.09,0,0,0,8.08-8.081,8.09,8.09,0,0,0-8.08-8.081,8.09,8.09,0,0,0-8.081,8.081,8.054,8.054,0,0,0,1.266,4.346l.176.274-.772,2.789,2.789-.771Zm3.613-1.662v-1.465h1.464V520.7Zm0-2.93V515.98l1.72-1.574a1.451,1.451,0,0,0,.477-1.082,1.466,1.466,0,0,0-1.464-1.464,1.466,1.466,0,0,0-1.465,1.464h-1.465a2.933,2.933,0,0,1,2.93-2.93,2.933,2.933,0,0,1,2.93,2.93,2.936,2.936,0,0,1-.953,2.162l-1.245,1.139v1.142Z" transform="translate(63 756)" fill="url(#linear-gradient)"/>
  </g>
</svg>
