<svg xmlns="http://www.w3.org/2000/svg" xmlns:xlink="http://www.w3.org/1999/xlink" width="25" height="25" viewBox="0 0 25 25">
  <defs>
    <clipPath id="clip-path">
      <rect id="矩形_4" data-name="矩形 4" width="25" height="25" transform="translate(335 10)" fill="rgba(34,85,70,0)"/>
    </clipPath>
    <linearGradient id="linear-gradient" x1="0.5" x2="0.5" y2="1" gradientUnits="objectBoundingBox">
      <stop offset="0" stop-color="#ffffc1"/>
      <stop offset="0.289" stop-color="#fada8e"/>
      <stop offset="0.487" stop-color="#dab672"/>
      <stop offset="0.797" stop-color="#b88849"/>
      <stop offset="1" stop-color="#e0b66c"/>
    </linearGradient>
  </defs>
  <g id="ic-lookbook" transform="translate(-335 -10)" clip-path="url(#clip-path)">
    <path id="联合_5" data-name="联合 5" d="M398.905-1187a2.908,2.908,0,0,1-2.905-2.905v-19.189a2.909,2.909,0,0,1,2.905-2.906h14.346a.908.908,0,0,1,.908.908v3.087h1.514a.908.908,0,0,1,.908.908v19.189a.908.908,0,0,1-.908.908Zm-1.09-2.905a1.1,1.1,0,0,0,1.09,1.089h15.86v-17.373h-7.628v8.232a.908.908,0,0,1-.461.791.912.912,0,0,1-.447.117.9.9,0,0,1-.468-.13l-1.893-1.139-1.892,1.14a.907.907,0,0,1-.915.013.909.909,0,0,1-.462-.791v-8.232h-1.695a2.98,2.98,0,0,1-1.09-.2Zm6.522-10.251.985.593v-6.626h-2.906v6.626l.984-.593a.911.911,0,0,1,.469-.13A.907.907,0,0,1,404.338-1200.156Zm-6.522-8.938a1.066,1.066,0,0,0,1.09,1.089h13.439v-2.179H398.905A1.1,1.1,0,0,0,397.815-1209.094Z" transform="translate(-58.79 1222)" fill="url(#linear-gradient)"/>
  </g>
</svg>
