<?xml version="1.0" encoding="utf-8"?>
<!-- Generator: Adobe Illustrator 23.0.4, SVG Export Plug-In . SVG Version: 6.00 Build 0)  -->
<svg version="1.1" id="圖層_1" xmlns="http://www.w3.org/2000/svg" xmlns:xlink="http://www.w3.org/1999/xlink" x="0px" y="0px"
	 viewBox="0 0 60 60" style="enable-background:new 0 0 60 60;" xml:space="preserve">
<style type="text/css">
	.st0{fill:#006636;}
	.st1{fill:url(#SVGID_1_);}
	.st2{fill:#221714;}
	.st3{fill:url(#SVGID_2_);}
	.st4{fill:#9E5223;}
	.st5{opacity:0.44;fill:#050C26;}
	.st6{fill:#7B4C22;}
	.st7{fill:url(#SVGID_3_);}
	.st8{fill:url(#SVGID_4_);}
	.st9{opacity:0.29;fill:#692E19;}
	.st10{fill:url(#SVGID_5_);}
	.st11{fill:url(#SVGID_6_);}
	.st12{fill:url(#SVGID_7_);}
	.st13{opacity:0.33;fill:#E9E53A;}
	.st14{opacity:0.81;fill:#E9E53A;}
	.st15{fill:#F5F089;}
	.st16{fill:#FFFFFF;}
	.st17{opacity:0.66;fill:#F5F089;}
</style>
<g>
	<circle class="st0" cx="30" cy="31.8" r="28.2"/>
	<g>
		<linearGradient id="SVGID_1_" gradientUnits="userSpaceOnUse" x1="49.9583" y1="9.2506" x2="10.0417" y2="49.1671">
			<stop  offset="0" style="stop-color:#FECE1D"/>
			<stop  offset="7.286184e-02" style="stop-color:#FCD226"/>
			<stop  offset="0.1916" style="stop-color:#F6DB3E"/>
			<stop  offset="0.2881" style="stop-color:#F0E557"/>
			<stop  offset="0.3783" style="stop-color:#EAED6A"/>
			<stop  offset="0.5152" style="stop-color:#E0FD8E"/>
			<stop  offset="0.7081" style="stop-color:#6EFA32"/>
			<stop  offset="1" style="stop-color:#27AC1A"/>
		</linearGradient>
		<circle class="st1" cx="30" cy="29.2" r="28.2"/>
		<path class="st2" d="M30,1c15.6,0,28.2,12.6,28.2,28.2S45.6,57.4,30,57.4S1.8,44.8,1.8,29.2S14.4,1,30,1 M30,0
			C13.9,0,0.8,13.1,0.8,29.2S13.9,58.4,30,58.4s29.2-13.1,29.2-29.2S46.1,0,30,0L30,0z"/>
	</g>
	<g>
		<linearGradient id="SVGID_2_" gradientUnits="userSpaceOnUse" x1="39.6238" y1="12.5398" x2="20.3762" y2="45.8778">
			<stop  offset="0" style="stop-color:#FED825"/>
			<stop  offset="0.3847" style="stop-color:#6ECE49"/>
			<stop  offset="1" style="stop-color:#278D00"/>
		</linearGradient>
		<circle class="st3" cx="30" cy="29.2" r="19.2"/>
	</g>
	<path class="st4" d="M11.8,32.1c0-11.3,9.2-20.5,20.5-20.5c3.2,0,6.2,0.8,9,2.1c-3.2-2.3-7-3.6-11.2-3.6
		c-10.6,0-19.2,8.6-19.2,19.2c0,2.7,0.6,5.3,1.6,7.6C12,35.3,11.8,33.7,11.8,32.1z"/>
	<g>
		<path class="st5" d="M30.1,39.5c-7.5,5-10.7,2.8-8.7-6.3c-6.8-6-5.2-9.2,3.6-10c3.2-8.3,6.9-8,10-0.1c8.8,0.6,10.2,3.2,3.6,9.8
			C40.8,42,37.7,44.4,30.1,39.5z"/>
		<path class="st6" d="M30.1,38.7c-7.5,5-10.7,2.8-8.7-6.3c-6.8-6-5.2-9.2,3.6-10c3.2-8.3,6.9-8,10-0.1c8.8,0.6,10.4,3.6,3.6,9.8
			C40.8,41.2,37.7,43.6,30.1,38.7z"/>
		<linearGradient id="SVGID_3_" gradientUnits="userSpaceOnUse" x1="30.1736" y1="44.0643" x2="29.9257" y2="15.7108">
			<stop  offset="0" style="stop-color:#9C443F"/>
			<stop  offset="1" style="stop-color:#E8944D"/>
		</linearGradient>
		<path class="st7" d="M30.1,38.1c-7.5,4.7-10.2,2.8-8.2-5.8c-6.8-5.7-5.8-8.8,3-9.6c3.3-8.2,6.6-8.2,10-0.1
			c8.8,0.6,9.9,3.8,3.2,9.5C40.3,40.7,37.6,42.7,30.1,38.1z"/>
		<linearGradient id="SVGID_4_" gradientUnits="userSpaceOnUse" x1="30.6861" y1="50.6197" x2="29.8066" y2="18.4692">
			<stop  offset="3.454400e-02" style="stop-color:#E7C81F"/>
			<stop  offset="5.763710e-02" style="stop-color:#EAB51D"/>
			<stop  offset="9.074552e-02" style="stop-color:#EDA21C"/>
			<stop  offset="0.1291" style="stop-color:#EE941B"/>
			<stop  offset="0.1771" style="stop-color:#F08C1A"/>
			<stop  offset="0.2647" style="stop-color:#F08A1A"/>
			<stop  offset="1" style="stop-color:#F4E42A"/>
		</linearGradient>
		<path class="st8" d="M30.1,38.1c-7.5,4.7-10.2,2.8-8.2-5.8c-6.8-5.7-5.8-8.8,3-9.6c3.3-8.2,6.6-8.2,10-0.1
			c8.8,0.6,9.9,3.8,3.2,9.5C40.3,40.7,37.6,42.7,30.1,38.1z"/>
		<path class="st9" d="M30.1,38.1c-7.5,4.7-10.2,2.8-8.2-5.8c-6.8-5.7-5.8-8.8,3-9.6c3.3-8.2,6.6-8.2,10-0.1
			c8.8,0.6,9.9,3.8,3.2,9.5C40.3,40.7,37.6,42.7,30.1,38.1z"/>
		<path class="st9" d="M30.1,38.1c1.8,1.1,3.3,1.8,4.5,2.2c0-0.6,0.1-1.1,0.1-1.1s-1.5-0.7-2-0.9c-0.4-0.1-2.6-2.3-2.6-2.3L30,38.1
			C30,38.1,30.1,38.1,30.1,38.1z"/>
		<linearGradient id="SVGID_5_" gradientUnits="userSpaceOnUse" x1="37.1697" y1="43.6357" x2="36.6324" y2="37.7252">
			<stop  offset="3.454400e-02" style="stop-color:#E7C81F"/>
			<stop  offset="6.931128e-02" style="stop-color:#EAB51D"/>
			<stop  offset="0.1192" style="stop-color:#EDA21C"/>
			<stop  offset="0.1769" style="stop-color:#EE941B"/>
			<stop  offset="0.2492" style="stop-color:#F08C1A"/>
			<stop  offset="0.3811" style="stop-color:#F08A1A"/>
			<stop  offset="1" style="stop-color:#F4E42A"/>
		</linearGradient>
		<path class="st10" d="M37.7,37.5l-2,1.3c0,0,1.2,0.3,1.3,1.6c0.4-0.1,0.7-0.2,0.9-0.5C37.6,39.6,37.3,39,37.7,37.5z"/>
		<linearGradient id="SVGID_6_" gradientUnits="userSpaceOnUse" x1="22.3503" y1="42.4596" x2="23.783" y2="38.46">
			<stop  offset="3.454400e-02" style="stop-color:#E7C81F"/>
			<stop  offset="6.931128e-02" style="stop-color:#EAB51D"/>
			<stop  offset="0.1192" style="stop-color:#EDA21C"/>
			<stop  offset="0.1769" style="stop-color:#EE941B"/>
			<stop  offset="0.2492" style="stop-color:#F08C1A"/>
			<stop  offset="0.3811" style="stop-color:#F08A1A"/>
			<stop  offset="1" style="stop-color:#F4E42A"/>
		</linearGradient>
		<path class="st11" d="M23.7,40.5c-0.1-0.5,0-1.5,1.2-2c1.7-0.8-2.4-0.4-2.4-0.4s0.2,1.1-0.2,1.8C22.6,40.3,23.1,40.5,23.7,40.5z"
			/>
		<path class="st9" d="M42.5,26.1c-0.7,0-1.1-0.3-1.1-0.3S20.1,25,19.1,25.5c-0.6,0.3-1.1,0.3-1.5,0.3c-0.4,1.6,1.1,3.7,4.3,6.4
			c0.5-0.3,0.9-0.6,0.9-0.6s11.1-0.5,13-0.4c1.2,0.1,2.1,0.5,2.6,0.8C41.1,29.6,42.5,27.6,42.5,26.1z"/>
		<linearGradient id="SVGID_7_" gradientUnits="userSpaceOnUse" x1="30.202" y1="46.8462" x2="29.9731" y2="20.6761">
			<stop  offset="3.454400e-02" style="stop-color:#E7C81F"/>
			<stop  offset="5.763710e-02" style="stop-color:#EAB51D"/>
			<stop  offset="9.074552e-02" style="stop-color:#EDA21C"/>
			<stop  offset="0.1291" style="stop-color:#EE941B"/>
			<stop  offset="0.1771" style="stop-color:#F08C1A"/>
			<stop  offset="0.2647" style="stop-color:#F08A1A"/>
			<stop  offset="0.7315" style="stop-color:#F4CB20"/>
			<stop  offset="1" style="stop-color:#F4E42A"/>
		</linearGradient>
		<path class="st12" d="M30.1,37c-6.9,4.3-9.4,2.5-7.5-5.4c-6.3-5.2-5.3-8.2,2.8-8.8c3-7.6,6.1-7.6,9.3-0.1c8.1,0.5,9.1,3.5,2.9,8.8
			C39.5,39.4,37.1,41.2,30.1,37z"/>
		<path class="st13" d="M30.6,30.9c-1.4-1.3-5.4-4.7-7.3-2.7s4,5.7,6.1,5.9C31.4,34.2,31.6,31.8,30.6,30.9z"/>
		<path class="st13" d="M34.6,22.7c-3.1-7.5-6.2-7.5-9.3,0.1c-5.3,0.4-7.5,1.8-6.7,4.2c0.4-0.8,1.5-1.7,4-1.7
			c4.9,0,14.5,7.4,11.6,13.6c3.7,1.1,4.8-1.4,3.3-7.5C43.7,26.2,42.8,23.2,34.6,22.7z"/>
		<path class="st14" d="M34.6,22.7c-2.2-5.4-4.4-6.9-6.6-4.6c0.8,0.9,1.5,2.8,0,6.1c-1.6,3.7-4.8,5.2-7.2,5.7
			c0.5,0.5,1.1,1.1,1.8,1.6c-0.6,2.4-0.7,4.2-0.5,5.5c0.9-1.5,2.3-3.8,4.8-6.1c5-4.7,8.8-4.8,9.7-2.7c0.7,1.8-3.2,6.5-6,8.9
			c1,0.6,1.9,1.1,2.7,1.4c1.2-2,2.7-4.3,3.9-4.7c0.3-0.1,0.6-0.2,0.9-0.2c-0.1-0.7-0.3-1.4-0.5-2.2C43.7,26.2,42.8,23.2,34.6,22.7z"
			/>
		<path class="st15" d="M34.6,22.7c-3.1-7.5-6.2-7.5-9.3,0.1c-5.8,0.5-8,2.1-6.4,5c-0.2-0.6-0.8-2.9,1.9-3.6c3.2-0.8,5-0.8,5-0.8
			s1.8-5.4,4.1-5.1c2.3,0.4,3.5,5.2,3.5,5.2s5.1-0.1,7,1.3c0.9,0.7,0.8,1.9,0.5,3C42.7,24.8,40.6,23.1,34.6,22.7z"/>
		<path class="st16" d="M29.7,17.5c0,0-0.8,0.1-0.1,1.5c0.7,1.4,2.5,2.7,3,2.1C33.2,20.4,31.5,17.4,29.7,17.5z"/>
		<path class="st16" d="M33,21.7c0,0-0.8,0-0.4,0.8c0.3,0.8,1.3,1.1,1.5,0.4C34.3,22.3,33.6,21.5,33,21.7z"/>
		<path class="st17" d="M38.1,35.2c0,1.1-0.2,2.7-2,3.2c-1.8,0.5-3.5-1.4-4.9-2.2c-1.4-0.8-2.1,0.8-5.3,2C24,39,22.7,37.6,22,36.5
			c0.3,3.5,3,3.7,8.1,0.5c5.8,3.5,8.5,2.9,8.1-1.9C38.1,35.1,38.1,35.1,38.1,35.2z"/>
		<path class="st16" d="M26,38c0,0-1.7,0.7-1.3,1c0.4,0.3,1.4-0.1,2.1-0.3C27.4,38.4,28.6,37.1,26,38z"/>
		<path class="st16" d="M28.5,37.1c0,0-0.7,0.1-0.6,0.4c0.1,0.4,0.8,0.3,1,0C29,37.3,29.4,37,28.5,37.1z"/>
	</g>
</g>
</svg>
