<svg xmlns="http://www.w3.org/2000/svg" xmlns:xlink="http://www.w3.org/1999/xlink" width="44" height="44" viewBox="0 0 44 44">
  <defs>
    <clipPath id="clip-path">
      <rect id="矩形_3175" data-name="矩形 3175" width="44" height="44" transform="translate(-6555 -14715)" fill="#fff"/>
    </clipPath>
    <linearGradient id="linear-gradient" x1="0.5" x2="0.5" y2="1" gradientUnits="objectBoundingBox">
      <stop offset="0" stop-color="#e6b0ff"/>
      <stop offset="1" stop-color="#4c95ff"/>
    </linearGradient>
  </defs>
  <g id="ic-group" transform="translate(6555 14715)" clip-path="url(#clip-path)">
    <path id="路径_31387" data-name="路径 31387" d="M7511.385,15904.648V15897H7509a4.008,4.008,0,0,1-4-4v-17a4.007,4.007,0,0,1,4-4h6v-2a4.008,4.008,0,0,1,4-4h23a4.008,4.008,0,0,1,4,4v13a4.006,4.006,0,0,1-4,4h-2v6a4.008,4.008,0,0,1-4,4h-17.128a24.848,24.848,0,0,1-3.748,5.5c-1.92,1.924-2.966,2.212-3.417,2.212A.6.6,0,0,1,7511.385,15904.648ZM7509,15878v13a2,2,0,0,0,2,2h3.588v6.1l4.023-6.1H7534a2,2,0,0,0,2-2v-13a2.008,2.008,0,0,0-2-2h-23A2.008,2.008,0,0,0,7509,15878Zm29.51-5.112a3.981,3.981,0,0,0-2.4-.886A3.984,3.984,0,0,1,7538.512,15872.889ZM7536,15872h0Zm-21,14a2,2,0,0,1-2-2v-2a2,2,0,0,1,2-2h14a2,2,0,0,1,2,2v2a2,2,0,0,1-2,2Z" transform="translate(-14058.004 -30578)" fill="url(#linear-gradient)"/>
  </g>
</svg>
