<svg xmlns="http://www.w3.org/2000/svg" xmlns:xlink="http://www.w3.org/1999/xlink" width="44" height="44" viewBox="0 0 44 44">
  <defs>
    <clipPath id="clip-path">
      <rect id="矩形_3179" data-name="矩形 3179" width="44" height="44" transform="translate(-6295 -14715)" fill="#fff"/>
    </clipPath>
    <linearGradient id="linear-gradient" x1="0.5" x2="0.5" y2="1" gradientUnits="objectBoundingBox">
      <stop offset="0" stop-color="#e6b0ff"/>
      <stop offset="1" stop-color="#4c95ff"/>
    </linearGradient>
  </defs>
  <g id="ic-setting" transform="translate(6295 14715)" clip-path="url(#clip-path)">
    <g id="settings-gears" transform="translate(-6257.714 -14717.375)">
      <path id="路径_31386" data-name="路径 31386" d="M3.16,17.392a11.72,11.72,0,0,0,1.048,2.489l-1.265,1.6a1.31,1.31,0,0,0,.1,1.735l2.179,2.179a1.3,1.3,0,0,0,1.735.1l1.585-1.255a11.518,11.518,0,0,0,2.587,1.095l.238,2.04a1.306,1.306,0,0,0,1.3,1.157h3.083a1.306,1.306,0,0,0,1.3-1.157l.227-1.967a11.651,11.651,0,0,0,2.773-1.121l1.534,1.214a1.31,1.31,0,0,0,1.735-.1l2.179-2.179a1.3,1.3,0,0,0,.1-1.735l-1.193-1.513a11.38,11.38,0,0,0,1.141-2.727l1.838-.212a1.306,1.306,0,0,0,1.157-1.3V12.652a1.306,1.306,0,0,0-1.157-1.3l-1.813-.212a11.454,11.454,0,0,0-1.095-2.7l1.115-1.41a1.31,1.31,0,0,0-.1-1.735L23.31,3.129a1.3,1.3,0,0,0-1.735-.1L20.207,4.116a11.493,11.493,0,0,0-2.835-1.188l-.207-1.771A1.306,1.306,0,0,0,15.869,0H12.786a1.306,1.306,0,0,0-1.3,1.157l-.207,1.771A11.445,11.445,0,0,0,8.376,4.157L6.956,3.031a1.31,1.31,0,0,0-1.735.1L3.042,5.309a1.3,1.3,0,0,0-.1,1.735l1.188,1.5a11.234,11.234,0,0,0-1.074,2.721l-1.9.217A1.306,1.306,0,0,0,0,12.781v3.083a1.306,1.306,0,0,0,1.157,1.3Zm11.17-8.34a5.1,5.1,0,1,1-5.1,5.1A5.1,5.1,0,0,1,14.33,9.052Z" transform="translate(-28.294 19.483) rotate(-49)" fill="url(#linear-gradient)"/>
      <path id="路径_31388" data-name="路径 31388" d="M1.285,8.245A1.414,1.414,0,0,0,.017,9.637L0,11.069a1.41,1.41,0,0,0,1.234,1.42l1.053.136a8.165,8.165,0,0,0,.747,1.828l-.679.837a1.411,1.411,0,0,0,.085,1.879l1,1.024a1.413,1.413,0,0,0,1.879.13l.843-.651a8.265,8.265,0,0,0,1.879.82l.113,1.086a1.414,1.414,0,0,0,1.392,1.268l1.432.017A1.41,1.41,0,0,0,12.4,19.63l.13-1.03a8.5,8.5,0,0,0,2.037-.792l.792.639a1.411,1.411,0,0,0,1.879-.085l1.024-1a1.413,1.413,0,0,0,.13-1.879l-.606-.787a8.206,8.206,0,0,0,.86-1.981l.939-.1a1.414,1.414,0,0,0,1.268-1.392L20.869,9.8a1.41,1.41,0,0,0-1.234-1.42l-.917-.119a8.525,8.525,0,0,0-.775-1.981l.572-.7A1.411,1.411,0,0,0,18.431,3.7l-1-1.024a1.413,1.413,0,0,0-1.879-.13l-.685.526a8.322,8.322,0,0,0-2.06-.894l-.091-.888A1.414,1.414,0,0,0,11.323.017L9.892,0a1.41,1.41,0,0,0-1.42,1.234l-.113.883a8.546,8.546,0,0,0-2.133.871l-.707-.577A1.411,1.411,0,0,0,3.639,2.5L2.609,3.5a1.413,1.413,0,0,0-.13,1.879l.605.781a8.282,8.282,0,0,0-.809,1.981Zm9.241-1.618A3.724,3.724,0,1,1,6.757,10.3,3.727,3.727,0,0,1,10.525,6.626Z" transform="matrix(0.891, 0.454, -0.454, 0.891, -30.872, 20.341)" fill="url(#linear-gradient)"/>
    </g>
  </g>
</svg>
