<?xml version="1.0" encoding="utf-8"?>
<!-- Generator: Adobe Illustrator 23.0.4, SVG Export Plug-In . SVG Version: 6.00 Build 0)  -->
<svg version="1.1" id="圖層_1" xmlns="http://www.w3.org/2000/svg" xmlns:xlink="http://www.w3.org/1999/xlink" x="0px" y="0px"
	 viewBox="0 0 40 42" style="enable-background:new 0 0 40 42;" xml:space="preserve">
<style type="text/css">
	.st0{fill:#1C2A54;}
	.st1{fill:url(#SVGID_1_);}
	.st2{fill:#171C61;}
	.st3{fill:#00DCFC;}
</style>
<path class="st0" d="M34,42.4H6c-3.3,0-6-2.7-6-6v-28c0-3.3,2.7-6,6-6h28c3.3,0,6,2.7,6,6v28C40,39.7,37.3,42.4,34,42.4z"/>
<linearGradient id="SVGID_1_" gradientUnits="userSpaceOnUse" x1="7.4401" y1="41.7543" x2="32.5599" y2="-1.7543">
	<stop  offset="0" style="stop-color:#2E5AFF"/>
	<stop  offset="0.6843" style="stop-color:#FD59FD"/>
	<stop  offset="1" style="stop-color:#FD7FFD"/>
</linearGradient>
<path class="st1" d="M34,40H6c-3.3,0-6-2.7-6-6V6c0-3.3,2.7-6,6-6h28c3.3,0,6,2.7,6,6v28C40,37.3,37.3,40,34,40z"/>
<path class="st2" d="M29.5,18.4c-0.2-0.8-0.5-1.6-1-2.3l1.4-2.1l0,0L27,11.1l0,0l-2.1,1.4c-0.7-0.4-1.5-0.7-2.3-1L22.1,9h0H18h0
	l-0.5,2.5c-0.8,0.2-1.6,0.5-2.3,1L13,11.1l0,0L10.1,14l0,0l1.4,2.1c-0.4,0.7-0.7,1.5-1,2.3L8,18.9v0L8,23v0l2.5,0.5
	c0.2,0.8,0.5,1.6,1,2.3L10.1,28l0,0l2.9,2.9l0,0l2.1-1.4c0.7,0.4,1.5,0.7,2.3,1l0.5,2.5h0H22h0l0.5-2.5c0.8-0.2,1.6-0.5,2.3-1
	l2.1,1.4l0,0l2.9-2.9l0,0l-1.4-2.1c0.4-0.7,0.7-1.5,1-2.3l2.5-0.5v0l0-4.1v0L29.5,18.4z M20,25.2c-2.3,0-4.2-1.9-4.2-4.2
	c0-2.3,1.9-4.2,4.2-4.2c2.3,0,4.2,1.9,4.2,4.2C24.2,23.3,22.3,25.2,20,25.2z"/>
<path class="st3" d="M29.5,16.4c-0.2-0.8-0.5-1.6-1-2.3l1.4-2.1l0,0L27,9.1l0,0l-2.1,1.4c-0.7-0.4-1.5-0.7-2.3-1L22.1,7h0H18h0
	l-0.5,2.5c-0.8,0.2-1.6,0.5-2.3,1L13,9.1l0,0L10.1,12l0,0l1.4,2.1c-0.4,0.7-0.7,1.5-1,2.3L8,16.9v0L8,21v0l2.5,0.5
	c0.2,0.8,0.5,1.6,1,2.3L10.1,26l0,0l2.9,2.9l0,0l2.1-1.4c0.7,0.4,1.5,0.7,2.3,1l0.5,2.5h0H22h0l0.5-2.5c0.8-0.2,1.6-0.5,2.3-1
	l2.1,1.4l0,0l2.9-2.9l0,0l-1.4-2.1c0.4-0.7,0.7-1.5,1-2.3l2.5-0.5v0l0-4.1v0L29.5,16.4z M20,23.2c-2.3,0-4.2-1.9-4.2-4.2
	c0-2.3,1.9-4.2,4.2-4.2c2.3,0,4.2,1.9,4.2,4.2C24.2,21.3,22.3,23.2,20,23.2z"/>
</svg>
