<?xml version="1.0" encoding="utf-8"?>
<!-- Generator: Adobe Illustrator 23.0.4, SVG Export Plug-In . SVG Version: 6.00 Build 0)  -->
<svg version="1.1" id="圖層_1" xmlns="http://www.w3.org/2000/svg" xmlns:xlink="http://www.w3.org/1999/xlink" x="0px" y="0px"
	 viewBox="0 0 40 42" style="enable-background:new 0 0 40 42;" xml:space="preserve">
<style type="text/css">
	.st0{fill:#1C2A54;}
	.st1{fill:url(#SVGID_1_);}
	.st2{fill:#002937;}
	.st3{fill:#4FBFDD;}
</style>
<path class="st0" d="M34,42.4H6c-3.3,0-6-2.7-6-6v-28c0-3.3,2.7-6,6-6h28c3.3,0,6,2.7,6,6v28C40,39.7,37.3,42.4,34,42.4z"/>
<linearGradient id="SVGID_1_" gradientUnits="userSpaceOnUse" x1="7.4401" y1="41.7543" x2="32.5599" y2="-1.7543">
	<stop  offset="0" style="stop-color:#2E5AFF"/>
	<stop  offset="0.6843" style="stop-color:#FD59FD"/>
	<stop  offset="1" style="stop-color:#FD7FFD"/>
</linearGradient>
<path class="st1" d="M34,40H6c-3.3,0-6-2.7-6-6V6c0-3.3,2.7-6,6-6h28c3.3,0,6,2.7,6,6v28C40,37.3,37.3,40,34,40z"/>
<g>
	<path class="st2" d="M30.2,29.1c-0.8,0-1.6-0.3-2.3-0.9L20,20.2l-7.9,7.9c-1.2,1.3-3.3,1.3-4.5,0c-1.2-1.2-1.2-3.3,0-4.5l10.2-10.2
		c1.3-1.2,3.3-1.2,4.5,0l10.2,10.2c1.2,1.2,1.2,3.3,0,4.5C31.8,28.8,31,29.1,30.2,29.1z"/>
	<path class="st3" d="M30.2,27.5c-0.8,0-1.6-0.3-2.3-0.9L20,18.6l-7.9,7.9c-1.2,1.3-3.3,1.3-4.5,0c-1.2-1.2-1.2-3.3,0-4.5l10.2-10.2
		c1.3-1.2,3.3-1.2,4.5,0L32.4,22c1.2,1.2,1.2,3.3,0,4.5C31.8,27.2,31,27.5,30.2,27.5z"/>
</g>
</svg>
