<?xml version="1.0" encoding="utf-8"?>
<!-- Generator: Adobe Illustrator 23.0.4, SVG Export Plug-In . SVG Version: 6.00 Build 0)  -->
<svg version="1.1" id="圖層_1" xmlns="http://www.w3.org/2000/svg" xmlns:xlink="http://www.w3.org/1999/xlink" x="0px" y="0px"
	 viewBox="0 0 52 20" style="enable-background:new 0 0 52 20;" xml:space="preserve">
<style type="text/css">
	.st0{fill:url(#SVGID_1_);}
	.st1{fill:#231815;}
	.st2{fill:url(#SVGID_2_);}
	.st3{fill:url(#SVGID_3_);}
</style>
<g>
	<g>
		<linearGradient id="SVGID_1_" gradientUnits="userSpaceOnUse" x1="9.418" y1="18.7891" x2="9.418" y2="1.1875">
			<stop  offset="0" style="stop-color:#FF521D"/>
			<stop  offset="2.351629e-02" style="stop-color:#FF5C1C"/>
			<stop  offset="0.129" style="stop-color:#FE8617"/>
			<stop  offset="0.2369" style="stop-color:#FDA812"/>
			<stop  offset="0.346" style="stop-color:#FCC30F"/>
			<stop  offset="0.457" style="stop-color:#FBD60D"/>
			<stop  offset="0.5709" style="stop-color:#FBE10B"/>
			<stop  offset="0.6923" style="stop-color:#FBE50B"/>
			<stop  offset="0.9259" style="stop-color:#F0D0CF"/>
		</linearGradient>
		<path class="st0" d="M5.8,15.9c0,0.9-0.2,1.6-0.5,2.1s-0.8,0.7-1.5,0.7S2.8,18.5,2.4,18S2,16.9,2,15.9V3.8c0-0.9,0.1-1.5,0.4-2
			s0.8-0.6,1.4-0.6c0.4,0,0.7,0.1,1.1,0.3s0.7,0.5,1,1l7.2,9.5V4c0-0.9,0.2-1.6,0.5-2.1s0.8-0.7,1.5-0.7s1.1,0.2,1.5,0.7
			S16.9,3,16.9,4v12.4c0,0.8-0.1,1.4-0.4,1.8s-0.7,0.6-1.3,0.6c-0.4,0-0.8-0.1-1.1-0.3s-0.7-0.6-1.1-1.1l-7-9.3V15.9z"/>
		<path class="st1" d="M14.9,1.2c0.7,0,1.1,0.2,1.5,0.7C16.7,2.3,16.9,3,16.9,4v12.4c0,0.8-0.1,1.4-0.4,1.8
			c-0.3,0.4-0.7,0.6-1.3,0.6c-0.4,0-0.8-0.1-1.1-0.3c-0.4-0.2-0.7-0.6-1.1-1.1l-7-9.3v7.9c0,0.9-0.2,1.6-0.5,2.1
			c-0.3,0.5-0.8,0.7-1.5,0.7S2.8,18.5,2.4,18C2.1,17.6,2,16.9,2,15.9V3.8c0-0.9,0.1-1.5,0.4-2c0.3-0.4,0.8-0.6,1.4-0.6
			c0.4,0,0.7,0.1,1.1,0.3c0.3,0.2,0.7,0.5,1,1l7.2,9.5V4c0-0.9,0.2-1.6,0.5-2.1C13.8,1.4,14.3,1.2,14.9,1.2 M14.9,0.2
			c-1.2,0-1.9,0.6-2.3,1.1C12.2,1.9,12,2.8,12,4v5L6.6,1.9c-0.4-0.6-0.9-1-1.3-1.2c-0.5-0.3-1-0.4-1.6-0.4c-1.2,0-1.8,0.6-2.2,1.1
			C1.2,1.9,1,2.7,1,3.8v12.1c0,1.2,0.2,2,0.7,2.7c0.4,0.5,1,1.1,2.3,1.1s1.9-0.6,2.3-1.1c0.4-0.6,0.7-1.5,0.7-2.7v-4.9l5.2,6.9
			c0.5,0.6,0.9,1,1.3,1.3c0.5,0.3,1.1,0.5,1.7,0.5c1.2,0,1.8-0.5,2.2-1c0.4-0.6,0.6-1.4,0.6-2.4V4c0-1.2-0.2-2-0.7-2.7
			C16.9,0.8,16.2,0.2,14.9,0.2L14.9,0.2z"/>
	</g>
	<g>
		<linearGradient id="SVGID_2_" gradientUnits="userSpaceOnUse" x1="25.209" y1="18.8125" x2="25.209" y2="5.3477">
			<stop  offset="0" style="stop-color:#FF521D"/>
			<stop  offset="2.351629e-02" style="stop-color:#FF5C1C"/>
			<stop  offset="0.129" style="stop-color:#FE8617"/>
			<stop  offset="0.2369" style="stop-color:#FDA812"/>
			<stop  offset="0.346" style="stop-color:#FCC30F"/>
			<stop  offset="0.457" style="stop-color:#FBD60D"/>
			<stop  offset="0.5709" style="stop-color:#FBE10B"/>
			<stop  offset="0.6923" style="stop-color:#FBE50B"/>
			<stop  offset="0.9259" style="stop-color:#F0D0CF"/>
		</linearGradient>
		<path class="st2" d="M22.8,13.1c0.1,0.7,0.4,1.3,0.9,1.7s1.2,0.6,2,0.6c0.7,0,1.5-0.2,2.4-0.6s1.4-0.6,1.6-0.6
			c0.4,0,0.8,0.1,1.1,0.4s0.4,0.6,0.4,1.1c0,0.8-0.6,1.5-1.7,2.2s-2.5,1-4,1c-1.9,0-3.4-0.6-4.7-1.9s-1.9-2.9-1.9-4.8
			c0-1.9,0.6-3.5,1.8-4.8s2.7-1.9,4.5-1.9c1.8,0,3.2,0.6,4.4,1.8s1.8,2.7,1.8,4.4c0,0.6-0.1,1-0.4,1.2s-0.8,0.3-1.5,0.3H22.8z
			 M22.8,10.7h5c0-0.6-0.3-1.2-0.8-1.6s-1-0.6-1.7-0.6c-0.6,0-1.2,0.2-1.7,0.6S22.9,10,22.8,10.7z"/>
		<path class="st1" d="M25.3,5.3c1.8,0,3.2,0.6,4.4,1.8c1.2,1.2,1.8,2.7,1.8,4.4c0,0.6-0.1,1-0.4,1.2c-0.3,0.2-0.8,0.3-1.5,0.3h-6.8
			c0.1,0.7,0.4,1.3,0.9,1.7c0.5,0.4,1.2,0.6,2,0.6c0.7,0,1.5-0.2,2.4-0.6c0.9-0.4,1.4-0.6,1.6-0.6c0.4,0,0.8,0.1,1.1,0.4
			c0.3,0.3,0.4,0.6,0.4,1.1c0,0.8-0.6,1.5-1.7,2.2c-1.1,0.7-2.5,1-4,1c-1.9,0-3.4-0.6-4.7-1.9c-1.2-1.3-1.9-2.9-1.9-4.8
			c0-1.9,0.6-3.5,1.8-4.8C22,6,23.5,5.3,25.3,5.3 M22.8,10.7h5c0-0.6-0.3-1.2-0.8-1.6s-1-0.6-1.7-0.6c-0.6,0-1.2,0.2-1.7,0.6
			C23.2,9.4,22.9,10,22.8,10.7 M25.3,4.3c-2.1,0-3.9,0.8-5.3,2.2c-1.4,1.5-2.1,3.3-2.1,5.5c0,2.2,0.7,4,2.2,5.5
			c1.4,1.5,3.3,2.2,5.4,2.2c1.7,0,3.2-0.4,4.5-1.1c1.5-0.8,2.2-1.9,2.2-3.1c0-0.7-0.3-1.3-0.7-1.8c0,0,0,0-0.1-0.1
			c0.1-0.1,0.2-0.2,0.4-0.2c0.5-0.4,0.7-1.1,0.7-1.9c0-2-0.7-3.7-2.1-5.1C29,5.1,27.3,4.3,25.3,4.3L25.3,4.3z M24.5,9.7
			c0.2-0.2,0.5-0.2,0.9-0.2c0.3,0,0.6,0.1,0.8,0.2H24.5L24.5,9.7z M24.5,14.1H27c-0.5,0.2-0.9,0.3-1.3,0.3
			C25.2,14.4,24.8,14.3,24.5,14.1L24.5,14.1z"/>
	</g>
	<g>
		<linearGradient id="SVGID_3_" gradientUnits="userSpaceOnUse" x1="40.8945" y1="18.7891" x2="40.8945" y2="5.5352">
			<stop  offset="0" style="stop-color:#FF521D"/>
			<stop  offset="2.351629e-02" style="stop-color:#FF5C1C"/>
			<stop  offset="0.129" style="stop-color:#FE8617"/>
			<stop  offset="0.2369" style="stop-color:#FDA812"/>
			<stop  offset="0.346" style="stop-color:#FCC30F"/>
			<stop  offset="0.457" style="stop-color:#FBD60D"/>
			<stop  offset="0.5709" style="stop-color:#FBE10B"/>
			<stop  offset="0.6923" style="stop-color:#FBE50B"/>
			<stop  offset="0.9259" style="stop-color:#F0D0CF"/>
		</linearGradient>
		<path class="st3" d="M46.5,7.1c0.1-0.5,0.4-0.9,0.7-1.2s0.7-0.4,1.1-0.4c0.5,0,1,0.2,1.3,0.5S50,6.9,50,7.4c0,0.1,0,0.3-0.1,0.5
			c0,0.2-0.1,0.4-0.2,0.7l-2.9,8.3c-0.2,0.7-0.5,1.1-0.9,1.4s-0.8,0.4-1.3,0.4c-0.6,0-1.1-0.2-1.4-0.5s-0.7-0.8-0.8-1.5l-1.6-6
			l-1.5,6.1c-0.1,0.6-0.4,1-0.8,1.4s-0.8,0.5-1.4,0.5c-0.6,0-1-0.1-1.4-0.4s-0.6-0.8-0.9-1.5l-3-8.4c-0.1-0.2-0.1-0.4-0.2-0.6
			c0-0.2-0.1-0.3-0.1-0.5c0-0.5,0.2-1,0.5-1.3s0.8-0.5,1.3-0.5c0.5,0,0.9,0.2,1.2,0.5s0.6,0.8,0.7,1.4l2,6.9l1.6-6.9
			c0.1-0.6,0.3-1,0.6-1.3s0.7-0.4,1.1-0.4c0.5,0,0.9,0.2,1.2,0.5s0.6,0.7,0.7,1.3l1.7,6.8L46.5,7.1z"/>
		<path class="st1" d="M33.6,5.5c0.5,0,0.9,0.2,1.2,0.5c0.3,0.3,0.6,0.8,0.7,1.4l2,6.9l1.6-6.9c0.1-0.6,0.3-1,0.6-1.3
			c0.3-0.3,0.7-0.4,1.1-0.4c0.5,0,0.9,0.2,1.2,0.5c0.3,0.3,0.6,0.7,0.7,1.3l1.7,6.8l2-7.1c0.1-0.5,0.4-0.9,0.7-1.2
			c0.3-0.3,0.7-0.4,1.1-0.4c0.5,0,1,0.2,1.3,0.5C49.9,6.4,50,6.9,50,7.4c0,0.1,0,0.3-0.1,0.5s-0.1,0.4-0.2,0.8l-2.9,8.3
			c-0.2,0.7-0.5,1.1-0.9,1.4c-0.3,0.3-0.8,0.4-1.3,0.4c-0.6,0-1.1-0.2-1.4-0.5c-0.4-0.3-0.7-0.8-0.8-1.5l-1.6-6l-1.5,6.1
			c-0.1,0.6-0.4,1-0.8,1.4c-0.4,0.3-0.8,0.5-1.4,0.5c-0.6,0-1-0.1-1.4-0.4c-0.3-0.3-0.6-0.8-0.9-1.5l-3-8.4
			c-0.1-0.2-0.1-0.4-0.2-0.6c0-0.2-0.1-0.3-0.1-0.5c0-0.5,0.2-1,0.5-1.3C32.6,5.7,33,5.5,33.6,5.5 M33.6,4.5c-0.8,0-1.5,0.3-2,0.8
			c-0.5,0.5-0.8,1.2-0.8,2c0,0.2,0,0.4,0.1,0.7c0,0.2,0.1,0.4,0.2,0.7l3,8.4c0.3,0.9,0.7,1.5,1.2,2c0.5,0.5,1.2,0.7,2,0.7
			c0.8,0,1.5-0.2,2-0.7c0.5-0.5,0.9-1.1,1.1-1.9l0.5-2.2l0.6,2.1c0.2,0.8,0.6,1.5,1.2,2c0.6,0.5,1.3,0.7,2.1,0.7
			c0.8,0,1.4-0.2,1.9-0.7c0.5-0.4,0.9-1,1.2-1.9L50.7,9c0.1-0.4,0.2-0.7,0.3-0.9C51,7.9,51,7.7,51,7.4c0-0.8-0.3-1.5-0.8-2
			c-0.5-0.5-1.2-0.8-2-0.8c-0.7,0-1.3,0.2-1.8,0.7c-0.4,0.4-0.8,0.9-1,1.6l-1,3.5l-0.8-3.2c-0.2-0.8-0.5-1.4-1-1.8
			c-0.5-0.5-1.2-0.7-1.9-0.7c-0.7,0-1.3,0.2-1.8,0.7c-0.4,0.4-0.8,1-0.9,1.8l-0.7,3.2l-0.9-3.2c-0.2-0.8-0.6-1.4-1-1.8
			C35,4.8,34.3,4.5,33.6,4.5L33.6,4.5z"/>
	</g>
</g>
</svg>
