<?xml version="1.0" encoding="utf-8"?>
<!-- Generator: Adobe Illustrator 23.0.4, SVG Export Plug-In . SVG Version: 6.00 Build 0)  -->
<svg version="1.1" id="圖層_1" xmlns="http://www.w3.org/2000/svg" xmlns:xlink="http://www.w3.org/1999/xlink" x="0px" y="0px"
	 viewBox="0 0 40 40" style="enable-background:new 0 0 40 40;" xml:space="preserve">
<style type="text/css">
	.st0{opacity:0.44;fill:#060C26;}
	.st1{fill:#7C4D22;}
	.st2{fill:url(#SVGID_1_);}
	.st3{fill:url(#SVGID_2_);}
	.st4{opacity:0.29;fill:#692F19;}
	.st5{fill:url(#SVGID_3_);}
	.st6{fill:url(#SVGID_4_);}
	.st7{fill:url(#SVGID_5_);}
	.st8{opacity:0.33;fill:#EAE63C;}
	.st9{opacity:0.81;fill:#EAE63C;}
	.st10{fill:#F6F18A;}
	.st11{fill:#FFFFFF;}
	.st12{opacity:0.66;fill:#F6F18A;}
</style>
<g>
	<path class="st0" d="M20.2,35.4c-11.2,7.4-16,4.1-13-9.5C-3,17-0.7,12.2,12.5,11.1c4.8-12.4,10.3-11.9,15-0.1
		c13.2,0.9,15.3,4.8,5.4,14.7C36.1,39.2,31.4,42.7,20.2,35.4z"/>
	<path class="st1" d="M20.2,34.2c-11.2,7.4-16,4.1-13-9.5C-3,15.8-0.7,11,12.5,9.8c4.8-12.4,10.3-11.9,15-0.1
		c13.2,0.9,15.6,5.3,5.4,14.7C36.1,38,31.4,41.5,20.2,34.2z"/>
	<linearGradient id="SVGID_1_" gradientUnits="userSpaceOnUse" x1="20.2594" y1="42.1883" x2="19.889" y2="-0.1608">
		<stop  offset="0" style="stop-color:#9D453F"/>
		<stop  offset="1" style="stop-color:#E9954E"/>
	</linearGradient>
	<path class="st2" d="M20.2,33.2C9,40.2,4.9,37.3,8,24.5C-2.2,16-0.7,11.3,12.5,10.2c4.9-12.3,9.9-12.3,15-0.1
		c13.2,0.9,14.7,5.6,4.7,14.2C35.4,37.1,31.4,40.1,20.2,33.2z"/>
	<linearGradient id="SVGID_2_" gradientUnits="userSpaceOnUse" x1="21.0248" y1="51.9794" x2="19.7111" y2="3.9592">
		<stop  offset="3.454400e-02" style="stop-color:#E8C920"/>
		<stop  offset="5.426153e-02" style="stop-color:#EBBB1F"/>
		<stop  offset="8.065303e-02" style="stop-color:#EEAB1D"/>
		<stop  offset="0.1102" style="stop-color:#F09D1C"/>
		<stop  offset="0.1443" style="stop-color:#F1931C"/>
		<stop  offset="0.1869" style="stop-color:#F18D1B"/>
		<stop  offset="0.2647" style="stop-color:#F18B1B"/>
		<stop  offset="1" style="stop-color:#F5E52B"/>
	</linearGradient>
	<path class="st3" d="M20.2,33.2C9,40.2,4.9,37.3,8,24.5C-2.2,16-0.7,11.3,12.5,10.2c4.9-12.3,9.9-12.3,15-0.1
		c13.2,0.9,14.7,5.6,4.7,14.2C35.4,37.1,31.4,40.1,20.2,33.2z"/>
	<path class="st4" d="M20.2,33.2C9,40.2,4.9,37.3,8,24.5C-2.2,16-0.7,11.3,12.5,10.2c4.9-12.3,9.9-12.3,15-0.1
		c13.2,0.9,14.7,5.6,4.7,14.2C35.4,37.1,31.4,40.1,20.2,33.2z"/>
	<path class="st4" d="M20.2,33.2c2.6,1.6,4.9,2.7,6.7,3.2c-0.1-0.9,0.2-1.7,0.2-1.7s-2.3-1.1-2.9-1.3c-0.7-0.2-3.8-3.5-3.8-3.5
		L20,33.3C20,33.3,20.1,33.2,20.2,33.2z"/>
	<linearGradient id="SVGID_3_" gradientUnits="userSpaceOnUse" x1="30.7088" y1="41.5482" x2="29.9062" y2="32.7202">
		<stop  offset="3.454400e-02" style="stop-color:#E8C920"/>
		<stop  offset="6.422926e-02" style="stop-color:#EBBB1F"/>
		<stop  offset="0.104" style="stop-color:#EEAB1D"/>
		<stop  offset="0.1485" style="stop-color:#F09D1C"/>
		<stop  offset="0.1998" style="stop-color:#F1931C"/>
		<stop  offset="0.2639" style="stop-color:#F18D1B"/>
		<stop  offset="0.3811" style="stop-color:#F18B1B"/>
		<stop  offset="1" style="stop-color:#F5E52B"/>
	</linearGradient>
	<path class="st5" d="M31.5,32.5l-3,1.9c0,0,1.8,0.5,2,2.3c0.5-0.1,1-0.4,1.4-0.7C31.3,35.6,30.9,34.6,31.5,32.5z"/>
	<linearGradient id="SVGID_4_" gradientUnits="userSpaceOnUse" x1="8.5743" y1="39.7914" x2="10.7142" y2="33.8176">
		<stop  offset="3.454400e-02" style="stop-color:#E8C920"/>
		<stop  offset="6.422926e-02" style="stop-color:#EBBB1F"/>
		<stop  offset="0.104" style="stop-color:#EEAB1D"/>
		<stop  offset="0.1485" style="stop-color:#F09D1C"/>
		<stop  offset="0.1998" style="stop-color:#F1931C"/>
		<stop  offset="0.2639" style="stop-color:#F18D1B"/>
		<stop  offset="0.3811" style="stop-color:#F18B1B"/>
		<stop  offset="1" style="stop-color:#F5E52B"/>
	</linearGradient>
	<path class="st6" d="M10.7,36.9c-0.1-0.8,0-2.3,1.7-3.1c2.5-1.2-3.7-0.5-3.7-0.5S9,35,8.4,36C9,36.6,9.7,36.9,10.7,36.9z"/>
	<path class="st4" d="M38.7,15.3c-1,0-1.7-0.4-1.7-0.4S5.2,13.6,3.7,14.4c-0.9,0.5-1.7,0.5-2.2,0.4c-0.5,2.3,1.6,5.5,6.5,9.6
		c0.7-0.5,1.3-0.9,1.3-0.9s16.6-0.8,19.3-0.6c1.9,0.1,3.2,0.8,3.9,1.2C36.6,20.5,38.7,17.6,38.7,15.3z"/>
	<linearGradient id="SVGID_5_" gradientUnits="userSpaceOnUse" x1="20.3017" y1="46.3434" x2="19.9598" y2="7.2554">
		<stop  offset="3.454400e-02" style="stop-color:#E8C920"/>
		<stop  offset="5.426153e-02" style="stop-color:#EBBB1F"/>
		<stop  offset="8.065303e-02" style="stop-color:#EEAB1D"/>
		<stop  offset="0.1102" style="stop-color:#F09D1C"/>
		<stop  offset="0.1443" style="stop-color:#F1931C"/>
		<stop  offset="0.1869" style="stop-color:#F18D1B"/>
		<stop  offset="0.2647" style="stop-color:#F18B1B"/>
		<stop  offset="0.7315" style="stop-color:#F5CC21"/>
		<stop  offset="1" style="stop-color:#F5E52B"/>
	</linearGradient>
	<path class="st7" d="M20.1,31.6c-10.3,6.5-14.1,3.8-11.2-8c-9.4-7.8-8-12.2,4.2-13.2C17.6-0.9,22.2-1,26.9,10.3
		c12.2,0.8,13.6,5.2,4.4,13.1C34.3,35.2,30.6,37.9,20.1,31.6z"/>
	<path class="st8" d="M20.9,22.5c-2.1-2-8.1-6.9-10.9-4s6,8.5,9,8.7C22.1,27.5,22.4,23.9,20.9,22.5z"/>
	<path class="st8" d="M26.9,10.3C22.2-1,17.6-0.9,13.1,10.4C5.2,11,1.8,13.1,3,16.6c0.6-1.2,2.2-2.5,6-2.5c7.4,0,21.6,11,17.3,20.4
		c5.6,1.6,7.2-2.1,4.9-11.2C40.5,15.4,39.1,11.1,26.9,10.3z"/>
	<path class="st9" d="M26.9,10.3C23.6,2.2,20.3,0,17,3.4c1.2,1.4,2.2,4.1,0,9.2c-2.4,5.6-7.2,7.8-10.8,8.6c0.8,0.8,1.6,1.6,2.7,2.4
		c-0.8,3.6-1.1,6.3-0.8,8.2c1.3-2.3,3.4-5.6,7.1-9.1c7.5-7,13.2-7.1,14.4-4c1.1,2.6-4.8,9.8-9,13.3c1.5,0.9,2.9,1.6,4.1,2.1
		c1.8-3,4.1-6.4,5.9-7.1c0.5-0.2,0.9-0.2,1.3-0.3c-0.2-1-0.4-2.1-0.7-3.3C40.5,15.4,39.1,11.1,26.9,10.3z"/>
	<path class="st10" d="M26.9,10.3C22.2-1,17.6-0.9,13.1,10.4c-8.7,0.7-11.9,3.2-9.5,7.4c-0.3-0.9-1.2-4.4,2.9-5.4
		c4.7-1.2,7.5-1.2,7.5-1.2s2.7-8.1,6.1-7.6c3.4,0.5,5.2,7.8,5.2,7.8s7.7-0.1,10.5,2c1.4,1,1.3,2.8,0.7,4.4
		C39,13.4,35.8,10.9,26.9,10.3z"/>
	<path class="st11" d="M19.6,2.5c0,0-1.2,0.2-0.2,2.2c1,2.1,3.7,4.1,4.5,3.1C24.8,6.9,22.2,2.3,19.6,2.5z"/>
	<path class="st11" d="M24.5,8.7c0,0-1.2,0.1-0.7,1.2c0.5,1.2,1.9,1.6,2.2,0.7C26.3,9.7,25.3,8.4,24.5,8.7z"/>
	<path class="st12" d="M32.1,28.9c0,1.6-0.3,4.1-2.9,4.8c-2.7,0.7-5.2-2.1-7.3-3.3c-2.1-1.2-3.2,1.2-7.9,3C11,34.6,9.1,32.6,8,30.9
		c0.4,5.3,4.5,5.5,12.1,0.7c8.6,5.2,12.6,4.3,12.1-2.9C32.1,28.7,32.1,28.8,32.1,28.9z"/>
	<path class="st11" d="M14,33.1c0,0-2.5,1-1.9,1.5c0.6,0.5,2.2-0.1,3.1-0.5C16,33.8,17.9,31.8,14,33.1z"/>
	<path class="st11" d="M17.8,31.8c0,0-1.1,0.1-1,0.7c0.1,0.6,1.1,0.4,1.4,0C18.5,32.1,19,31.7,17.8,31.8z"/>
</g>
</svg>
