<svg xmlns="http://www.w3.org/2000/svg" xmlns:xlink="http://www.w3.org/1999/xlink" width="45" height="45" viewBox="0 0 45 45">
  <defs>
    <linearGradient id="linear-gradient" y1="0.5" x2="1" y2="0.5" gradientUnits="objectBoundingBox">
      <stop offset="0" stop-color="#b07515"/>
      <stop offset="0.094" stop-color="#e0ba5f"/>
      <stop offset="0.14" stop-color="#f5d77f"/>
      <stop offset="0.258" stop-color="#ffffd7"/>
      <stop offset="0.36" stop-color="#f5d77f"/>
      <stop offset="0.489" stop-color="#b07515"/>
      <stop offset="0.573" stop-color="#e0ba5f"/>
      <stop offset="0.613" stop-color="#f5d77f"/>
      <stop offset="0.737" stop-color="#ffffd7"/>
      <stop offset="0.839" stop-color="#f5d77f"/>
      <stop offset="1" stop-color="#b07515"/>
    </linearGradient>
    <linearGradient id="linear-gradient-2" x1="0.5" x2="0.5" y2="1" gradientUnits="objectBoundingBox">
      <stop offset="0" stop-color="#ffffc1"/>
      <stop offset="0.289" stop-color="#fada8e"/>
      <stop offset="0.487" stop-color="#dab672"/>
      <stop offset="0.797" stop-color="#b88849"/>
      <stop offset="1" stop-color="#e0b66c"/>
    </linearGradient>
  </defs>
  <g id="btn-play" transform="translate(-255.5 -1133.5)">
    <path id="减去_1" data-name="减去 1" d="M22,44A22,22,0,0,1,6.444,6.444,22,22,0,0,1,37.556,37.556,21.857,21.857,0,0,1,22,44ZM22,1.5A20.5,20.5,0,1,0,42.5,22,20.523,20.523,0,0,0,22,1.5Z" transform="translate(256 1134)" stroke="rgba(0,0,0,0)" stroke-miterlimit="10" stroke-width="1" fill="url(#linear-gradient)"/>
    <g id="椭圆_131" data-name="椭圆 131" transform="translate(257 1135)" fill="rgba(3,42,30,0.8)" stroke="#f7d894" stroke-width="1">
      <circle cx="21" cy="21" r="21" stroke="none"/>
      <circle cx="21" cy="21" r="20.5" fill="none"/>
    </g>
    <g id="多边形_1" data-name="多边形 1" transform="translate(287 1148) rotate(90)" fill="url(#linear-gradient-2)">
      <path d="M 15.15137004852295 12.50000190734863 L 1.848629951477051 12.50000190734863 C 1.5796799659729 12.50000190734863 1.451490044593811 12.31670188903809 1.408859968185425 12.23789215087891 C 1.366219997406006 12.15909194946289 1.282960057258606 11.95148181915283 1.430150032043457 11.72637176513672 L 8.081509590148926 1.553691983222961 C 8.175580024719238 1.409832000732422 8.328109741210938 1.327322006225586 8.5 1.327322006225586 C 8.671890258789063 1.327322006225586 8.824419975280762 1.409832000732422 8.918490409851074 1.553701996803284 L 15.56986045837402 11.72637176513672 C 15.71704006195068 11.95148181915283 15.63377952575684 12.15909194946289 15.591139793396 12.23789215087891 C 15.54850959777832 12.31670188903809 15.42031955718994 12.50000190734863 15.15137004852295 12.50000190734863 Z" stroke="none"/>
      <path d="M 8.499872207641602 1.827516555786133 L 8.5 1.827322006225586 L 1.848633766174316 11.99999523162842 C 1.848635673522949 11.99999809265137 1.848636627197266 12 1.848629951477051 12.00000190734863 L 15.1513557434082 12.00000190734863 C 15.15135765075684 11.99999809265137 15.15135955810547 11.9999942779541 15.15137004852295 12.00000190734863 L 8.499872207641602 1.827516555786133 M 8.499996185302734 0.8273191452026367 C 8.819805145263672 0.8273191452026367 9.139615058898926 0.9782371520996094 9.336969375610352 1.280072212219238 L 15.98834037780762 11.45275211334229 C 16.42321014404297 12.11785221099854 15.94602012634277 13.00000190734863 15.15137004852295 13.00000190734863 L 1.848629951477051 13.00000190734863 C 1.053970336914063 13.00000190734863 0.5767898559570313 12.11785221099854 1.011659622192383 11.45275211334229 L 7.663029670715332 1.280072212219238 C 7.860380172729492 0.9782371520996094 8.180187225341797 0.8273191452026367 8.499996185302734 0.8273191452026367 Z" stroke="none" fill="#f7d894"/>
    </g>
  </g>
</svg>
